<?xml version="1.0" encoding="UTF-8" standalone="no"?>
<svg
   xmlns:dc="http://purl.org/dc/elements/1.1/"
   xmlns:cc="http://creativecommons.org/ns#"
   xmlns:rdf="http://www.w3.org/1999/02/22-rdf-syntax-ns#"
   xmlns:svg="http://www.w3.org/2000/svg"
   xmlns="http://www.w3.org/2000/svg"
   id="svg32"
   version="1.1"
   viewBox="0 0 1458.467 834.279">
  <metadata
     id="metadata38">
    <rdf:RDF>
      <cc:Work
         rdf:about="">
        <dc:format>image/svg+xml</dc:format>
        <dc:type
           rdf:resource="http://purl.org/dc/dcmitype/StillImage" />
        <dc:title></dc:title>
      </cc:Work>
    </rdf:RDF>
  </metadata>
  <defs
     id="defs36" />
  <path
     id="path2"
     style="fill:#ffffff;fill-opacity:1;fill-rule:nonzero;stroke:none"
     d="M515.09 3.666l-1.24-.3 1.205-.107zM517.385 3.056c.451.759-1.128.507-1.917.576.397-.034 1.093-.913 1.917-.576" />
  <path
     id="path4"
     style="fill:#ffffff;fill-opacity:1;fill-rule:nonzero;stroke:none"
     d="M522.195 3.828c1.958-.172 4.732-.022 6.617-.973-.07-.793-1.19.104-1.61-.25 1.994.217 5.8-1.325 7.135.553.86.333 1.643.265 1.994-.175.69-1.236 2.432.988 2.672-1.02-.482-.756-.822-.317-1.207-.284 3.824-1.152 8.568 3.58 12.635.07l-.07-.78c2.722.157 5.463-.478 7.866.098l-5.834.92c.895 1.484 2.314-.61 4.011.83 1.859-1.343 4.392.409 5.701-2.48l-.613 2.035c3.144-.665 7.164.544 8.943-1.574l-.4.034c1.365 1.844 5.05-.83 7.506.136l9.07-.001c-.35.41-.248 1.576.926 1.473l1.535-.51c-.441-.37-.861-.726-1.236-.692 1.457-1.298 4.74.386 7.119.178.397.34-2.31.992-.242 1.995l2.187-2.165.93 1.892c1.162-.102 3.913-.726 4.147-2.336 1.198-.104-.27 1.196.138 1.578.554 1.506 2.265-1.413 2.09.994 1.15-.102 2.962-1.854 4.29-.376 3.004-1.44 5.948.649 8.994-.787 3.675 1.647 7.822-.307 11.88.515.068.792-1.13.896-1.06 1.697l.442.336c2.493-3.373 10.134-1.261 13.762-.443.375-.382-.098-1.128.676-1.194.86.71 1.795 2.622 3.752 2.45l.342-.852c-.07-.814-.863-.745-1.647-.677l-.385.035-.41.036c.663-1.59 1.956-.172 3.151-.276-.373.438.519 1.156 1.35 1.525-.073-.817.645-1.293.207-2.012 4.04 1.199 9.066.377 11.982 2.085 1.193.29 2.436 1 3.973.454l-.852-.727c2.39-.208 4.765-.023 6.063 1.424 1.142-.483 2.65-.973 2.817.939.215-2.358 5.053-.81 7.384-1.39 1.43 2.608 4.11 1.588 6.89 2.13.382-.422-.07-.78-.103-1.166l2.105 1.787c1.161-.49.37-.828-.137-1.57 1.953-.56 3.252.909 5.17.335-1.468.923-3.217-.894-4.272.779-.725.864.843.316.912 1.11 1.79-2.14 4.054 1.209 4.58-1.59.563 1.521 1.631.247 2.38.181 8.518 2.427 18.672 1.539 27.156 3.915l-.689.859c2.423.969 5.87-.514 6.112 2.257 1.915-.599 2.02-3.767 4.967-1.667l1.942-.548-.709.883c1.204.253 1.965.187 2.237-1.016l-.34.408 2.027.623-.721.878 3.126-.273-1.829 1.341c1.25 5.443 7.712 2.464 10.193 3.815l.035.405c1.59.299 2.719-.237 4.743.375-.52-1.528-3.294-1.672-4.914-2.336l.378-.033-.898-1.095-1.058 1.267-6.763-.583c1.137-.475 2.772.167 3.463-1.09l-3.602-.485c1.555-.136 3.744-2.702 5.111-.446 2.177-2.135 4.497 1.992 6.316.248 1.377 2.23 3.165.134 5.176.333-1.023 2.07 1.377 2.621 2.961 2.483l-5.454.885c.474 1.14 3.501-.307 4.078 1.62l1.583-.139c-2.655 1.018.307 3.502-.79 4.775 1.44 2.661 2.42.201 4.46 1.199 2.913 1.346 6.049 1.47 9.238 1.948l-.89-1.076c3.902-.342 7.889 4.008 10.729 1.01 3.076-1.065 4.28 3.602 7.546.492 7.407 3.33 17.431.895 24.435 4.214l1.825-1.358c.464.374.532 1.152 1.3 1.084-.734.456-1.898.974-2.54 2.199l1.618 1.035c-.328.404-1.184-.288-1.446.95 10.735 1.407 21.042 2.074 31.331 2.355l.104 1.19c-20.973-.92-42.11-3.434-62.624-3.986-1.06 1.65-2.856-.96-3.439 1.47 2.448.963 6.202-.934 9.095.382l1.239.715c.165-2.838 3.493-.755 5.142-.07 4.68-.41 11.795-.258 17.022.863.425.377.102 1.172.892 1.104l.312-.795c2.82.935 5.284 1.89 7.993 1.25l.297-1.208c5.942.24 10.884 2.58 16.72 2.07-2.63 1.44-7.526-.494-11.022-.19-17.799-.407-35.3-2.466-53.524-3.223-2.15-1.783-5.514.096-8.339-.828-8.368-.857-17.875-1.208-25.484-2.508-3.79 1.503-8.756-1.216-13.507-1.237-2.073-.972-4.422 3.568-5.114.1-1.216-.286-3.66-1.282-4.69.41l-113.653-9.797c-62.33-4.792-133.824 2.67-195.003 20.236-67.45 22.075-124.614 63.353-177.793 113.35-7.548 8.55-16.199 17.562-25.448 24.7-2.867 3.017-4.475 7.509-8.185 10.191l-.767.067c13-27.177 40.005-51.605 60.15-73.897 6.55-6.487 15.191-11.17 20.086-18.3l-.379.033c6.832-2.945 12.346-12.112 19.503-15.887.433.355.465.727.85.694.378-.408.755-.442.722-.831l-.415-.377c4.012-3.532 10.084-6.438 14.492-9.943 6.203-6.081 13.958-7.14 19.752-13.175 4.944-2.028 8.554-5.872 14.39-6.736.616-2.074 2.902-3.042 4.836-3.601l.034.387c11.622-6.578 24.904-12.86 37.414-18.28l1.233.688c2.428-4.183 7.747-1.862 10.95-5.67 2.535 1.704 6.62-.992 9.293-2.025-1.647-.996-3.116.667-4.25 1.172.718-1.259 4.516-2.777 6.18-1.736 1.711-2.888 6.155-2.107 8.332-3.88.312-.797.067.756.48 1.127 2.462-3.363 9.602-3.191 13.076-3.878l6.523-2.161c-.87-1.095-4.25 1.164-6.592 1.37l16.952-4.63.833.727c.652-1.647 4.94-2.431 6.891-2.602l-.343.439c.822.717 1.987.201 3.154.099l-2.054-.996c2.744.152 5.771-1.676 8.263-.331l.724-.833-1.65-.648 3.13-.275.068.787 2.31-.202-.102-1.173c3.807-1.927 4.08 1.203 8.167-1.507l-.698.854c1.167-.103 3.22.488 3.886-.744l-2.788-.144c.717-.864 2.301-.611 3.466-.712-.244 1.22.932 1.508 1.752 1.436 1.122-.487 1.851-.955 3.02-1.446-.578-1.534-1.202.106-2.002-.233 2.07-3.335 2.277 3.363 3.822-1.121.484.744.59 1.936 1.756 1.833l.307-.819-.41-.372 1.95-.17s-.337.437.036.405c.033.385.033.385.436.35l.723-.86-.435-.354 6.163-1.732.138 1.572 6.22-.936-2.445-.979 4.683-.41-.662 1.252c2.822.942 4.995-1.222 8.206-.72l-.482-1.15 2.338-.204.104 1.184" />
  <path
     id="path6"
     style="fill:#ffffff;fill-opacity:1;fill-rule:nonzero;stroke:none"
     d="M536.565 1.378c.49.756-2.296.998-2.365.206l2.365-.206M549.579 1.432l-2.45-.978 2.415.586zM567.223.28l.034.407-1.645-.657c.397-.035 1.184-.104 1.61.25M478.095 9.279l-1.092.867-.034-.38 1.126-.487M634.555 3.482l-.036-.41 1.6.272-.338.426-1.226-.288M706.477 9.792c.035.398-.718.872-1.096.906.343-.44.72-.872 1.096-.906M739.872 17.544l-.036-.408 1.584-.138.035.408-1.583.138M763.979 17.79l-.334.792.231-1.964s.856.692.103 1.172M766.983 16.346l-.034-.387 1.223.283.033.372-1.222-.268M770.144 16.444c.035.39-.761.067-1.523.134.374-.034 1.074-.86 1.523-.134M771.792 17.106c-1.1.858.14 1.596.583 2.3-1.202-.286-1.476.926-1.03 1.67-.857-.708-2.797-.538-2.312.203.34-.41.235-1.6-.172-1.956-.857-.715-1.986-.179-2.802-.108 1.06-1.313-1.188-.333-.896-1.53 2.462 1.393 4.324.01 6.63-.58M775.807 17.926l-.89-1.094.855.688z" />
  <path
     id="path8"
     style="fill:#ffffff;fill-opacity:1;fill-rule:nonzero;stroke:none"
     d="M779.913 19.543c-.692 1.236-4.793-.376-3.33 2.632 2.025 1.01 2.71-.584 4.234-1.132l-.457-.755c2.412.18 1.753-2.477 3.879-.34l-1.03 1.3c.38-.033.031.346.067.756-.47-1.134-2.392-.205-3.09.656 2.997 2.51 3.731-2.292 6.531-1.718.542-2.836 2.806.516 3.491-1.124l-.387.438c.902 1.483 2.276-.604 3.486-.71-1.506.95.204 2.336.276 3.158-4.28.722-7.039-3.741-9.07.374 2.95 2.098 1.062-1.69 3.864-1.134l-1.838 1.376 10.432 1.82.31-.822 20.375 2.92 2.165-2.136c-2.5 3.024 1.715 1.798 2.606 2.953 6.21-1.339 13.56 1.557 19.48 1.448 4.34.388 10.273.663 15.01.652 11.226 1.779 22.134 4.773 34.616 3.295-2.816-.572-7.286 2.62-9.78.856-3.53.308-9.87.045-12.998.318-1.818-2.585-5.467.887-8.348-.798.368-.032-.106-1.206.262-1.238 1.59-.14 3.234.484 4.335.012-2.059-.996-5.73-2.65-7.46-.136-3.347 2.644-7.252-1.73-10.27.512l-1.237-1.062c-.364.378-.292 1.196-1.076 1.264-1.573-4.6-6.486-1.812-9.152-1.176l.348-.434c-1.578.138-3.676-1.241-4.254.776l-.796.07c-.45-.746.726-.848.658-1.638-.864-.72-1.585.139-2.785-.142l.925 1.48c-1.269-.683-1.336-1.444-3.162-.103l-.81.07c.32-.822 1.058-1.273.603-2.438-.387.443-2.355-.152-2.219 1.399l.034.384-1.316-1.476c-.302 1.617-1.223.106-2.39.209-2.778-.519-5.765 1.708-8.306-.46 1.538-.532 2.85.937 4.362.447-.516-1.546-4.46-1.576-6.013-1.064-1.403 2.07-3.665-1.26-6.383-1.022l-1.046 1.67-1.286-1.12.72-.8.46.698c2.186-2.14 5.931.338 8.202-.717-5.738-2.6-12.983-.017-17.646.804l-.552-1.564-.742.468c-.87-1.481-4.024-.801-5.842.51.272-1.177-3.64-.834-4.913-1.943l-1.925.582c1.354-2.504 4.696-.41 6.972-1.405l.07.79 6.315.253c-7.79-3.278-18.697-1.903-27.913-3.875 2.214-1.37 6.84 1.76 9.724-1.253l-2.802-.528 3.088-.674-.96-1.893c.571 1.928 4.004.832 5.684 1.48M768.515 20.148c-.79.07-2.255 1.374-2.392-.193l2.392.193" />
  <path
     id="path10"
     style="fill:#ffffff;fill-opacity:1;fill-rule:nonzero;stroke:none"
     d="M796.212 21.259c2.845.965 5.896-.13 7.613 1.31 3.542-4.253 4.126 2.417 8.311.45 1.43-1.716 2.367-.208 4.216-1.545a.871.871 0 01-.27 1.58c.894 1.142 3.398-1.855 3.285 1.332-1.612-.258-3.215-.52-5.17-.35l1.678 1.008-3.135.274 1.136-.452c-.443-.763-.924-1.538-2.05-1.026-.811.072-2.602 2.188-4.226 1.176l1.453-.933c-.91-1.892-3.576-.483-5.228-1.513l.068.789 2.06.996c-2.82-.55-9.398.821-12.07-2.893l2.193-1.754.136 1.55" />
  <path
     id="path12"
     style="fill:#ffffff;fill-opacity:1;fill-rule:nonzero;stroke:none"
     d="M799.707 20.567l-.855-.688.79-.068zM769.373 25.17c.731-.412 1.971.24 2.246-.964l7.976.853c-.779.493-1.836 1.348-3 1.864l-.172-1.956c-3.466 1.099-3.236-.899-5.422 1.27-2.446-1.343-7.84.26-7.729-2.897 2.403.204 5.932-.105 6.101 1.83M811.59 21.128l-2.005-.244 1.968-.172zM834.427 25.426l.03.344c-1.428 1.72-3.624-.836-5.857.512-1.71-1.8-5.17-.702-8.024-1.65l2.27-.55-.105-1.196c4.084.846 7.751 2.492 11.686 2.54M829.968 23.81l-1.572.138c.383-.033.688-1.214 1.507-.882l.065.745M781.83 28.022l.073.812-.89-1.092c.387-.035.418.316.818.28M836.605 23.632c-.964 2.034-3.95-.41-4.74-.34l4.74.34M791.201 27.202c.071.812-.662 1.257-1.096.914-.425-.377.752-.884 1.096-.914M839.656 26.17l-3.977-.07-.068-.778c1.505-.524 2.785.54 4.045.849M807.19 29.75l-1.197-.258 1.167-.102zM835.815 27.644l-1.579.139c.328-.79.707-.824 1.512-.893l.067.754M842.8 26.272c-.401.399-2.29.962-1.6.14l1.6-.14M854.164 25.642l.363-.396 2.47.97zM866.241 28.555c-.682 1.236-2.46-.965-3.045 1.05l1.248.698c-1.148.448-3.933-4.393-4.755-.39l-1.229-.297.383-.033c-3.78-2.435-10.47-2.612-15.49-1.41 2.447-3.395 6.982-1.373 10.543-.923 4.324-.38 8.34.474 12.345 1.305" />
  <path
     id="path14"
     style="fill:#ffffff;fill-opacity:1;fill-rule:nonzero;stroke:none"
     d="M848.927 28.888l-1.187-.304 1.15-.101zM866.903 26.907c-.376.441.036.405.036.405l-.836-.334.8-.071M870.473 27.004c-.384.42-.733.83-.28 1.586.52 1.165 1.108-.891 1.212.298-1.109.903-3.964-.437-5.026 1.246-.138-1.58 2.926-2.642 4.094-3.13M874.03 27.079c-.365.827-1.91.961-2.329.584.282-1.2 1.484-.896 2.328-.584M874.963 28.968c-.275 1.218-1.574.138-2.704.65l.296-.831c.834.319 1.577-.541 2.408.181M878.881 28.626c-1.108.858-1.552.136-2.677.648l-.07-.8c.751.326 1.89-.166 2.747.152M857.43 36.024l-32.358-.322 1.556-.136-4.507-1.975.4-.427c11.538 1.752 23.792 1.895 34.91 2.86M882.04 28.764l-1.992-.241c.344-.421 1.499-.927 1.992.241M839.41 32.84l.757-.828 1.981.242zM879.396 30.166l1.096-.92.883.746zM890 29.238c-1.283 3.64-5.147.058-7.459.652 2.244-1.367 5.696 2.24 7.46-.652M875.68 32.49c-.75.446-.512-1.171-.58-1.948 1.24.277.54 1.504.58 1.948M877.603 31.874l-.067-.762 1.963.22zM894.075 30.88l-3.162-.17c.62-1.22 2.222-1.36 3.162.17M881.548 31.976l1.128-.546 1.957-.171zM826.41 37.539l-.065-.733 1.962-.171zM834.665 37.232l-.068-.768 2.004.184zM890.273 32.367c-.376.817-1.968.547-2.414-.204.79-.07 1.902-.524 2.414.204M893.053 32.907l-1.28-.672 1.212-.105zM843.863 38.42l-4.004-.45c.974-2.431 2.404.59 4.004.45M862.179 36.018c-.423.037-1.768 2.137-2.358.205.72-.88 1.58-.137 2.358-.205M852.936 38.808l-1.54.135.259-1.204c.034.39 1.212.285 1.281 1.07M824.735 40.486c-1.143.89-2.304.992-3.507.682 1.1-.864 2.295-.576 3.507-.682M894.859 35.487l-9.459.067c2.161-2.575 6.407 1.024 9.392-.822l.067.755M858.127 39.122l-1.602.14.348-.451-1.644-.993c1.162-.102 2.795.13 2.898 1.304M855.863 40.518c-.395.034-1.63-.652-1.94.55l9.648 1.9c-3.914.343-9.544-.721-12.423-2.452l4.715.002M867.932 43.404l-3.101.272-.07-.812c.81.31 2.311-.202 3.171.54M886.425 47.264l-8.645.022-.07-.816c3.913.06 5.17.729 8.715.794M919.17 47.602c-.723 5.176 5.917 8.924.44 13.732-4.553 2.376-5.709 7.204-10.271 9.204.238 2.734-2.048 3.729-4.328 4.304l-9.64-1.498c-4.29 4.727-9.028 9.074-13.418 13.378l.515.76-2.335.585c1.754 1.801-2.1 3.332-2.713 4.964-2.781-.17-.51 3.204-3.255 3.444.411.333.816.297 1.6.23-1.15.553-2.129 2.549-3.076 1.075-1.862 1.372-.412 4.382-4.048 3.143l.066.75c-.844-.682-2.346.205-1.875 1.357-.299.816.847.716.881 1.116.354-.822 1.922-.96 2.676-1.024l-4.2 5.866-.533-1.532c-1.25-.658-2.652 1.436-2.165 2.19.832.3 1.544-.136 2.338-.206l-2.517 2.97c-.488-1.156-1.579-.254-1.95.17l.9 1.082-3.895.782c2.542 1.743-.759 4.395-2.307 4.939-.741.424-1.116 1.264-1.43 1.65l.86.725-.446.038.072.823c-1.95.17-4.257.748-5.595 3.25l2.008.173-2.286 1 1.257.68c-.81.07-1.12.893-1.05 1.682-.757.066-3.123.666-4.234 1.546.033.378.49.73.525 1.14l-.714.848c-.488-1.155-1.647-.64-2.442-.571l1.738 1.815c-1.19 4.454-5.55-.698-7.219 3.005.916 1.505 3.455-1.087 3.317 1.687-1.54.51-1.682 3.294-3.777 2.268-1.33-1.822-4.364 3.58-6.685-.176-1.179.102-3.364 2.265-1.386 2.473-.882-1.513-2.652 1.044-3.797 1.541l.925 1.476-3.328 2.67c2.427.596 3.02-1.847 4.495-2.772l-.17-1.94c.993 2.254 2.32-.634 3.075-1.08 3.228.529 6.556-1.75 9.722-1.612l-1.168.482.861.687c-1.399 2.127-5.113-.315-6.557 1.8.47.323.83.705.862 1.083-.762.066-2.37-.587-2.882-1.702l-2.508 2.56 1.552.274-1.859.964c.513 1.125 2.356-.207 3.535-.31l.03.356 2.788.182c-3.404 1.86-5.165 4.393-9.008 5.52l.146-2.802c-1.988-.208-2.06 3.327-4.094 2.755-1.445 1.263-4.349 4.312-6.84 2.972.742-.479 2.356-.205 1.838-1.397-1.266-1.027-2.302.642-3.814 1.156l.067.756c-2.221-2.527-3.384 1.914-4.867 2.81 1.62.655 2.987-1.436 5.007-1.204l-3.628 3.47c.688-.844-.959-1.875-2.125-1.774-1.582.139-2.707.982-3.542-.116l-4.144 2.748c1.731 1.81 2.671-1.017 4.696-.41l-1.065.888.445 1.126-.732.456-.469-.75c-1.51.924-3.357 1.88-4.873 3.189l1.756 1.443c-3.646-.892-6.804 3.333-9.823 5.176l-.433-.343c-1.192 4.428-5.986 3.29-7.598 7.39-2.442-.598-3.293 3.005-6.428 3.28-4.592 6.326-13.348 5.525-17.486 12.191.404-.034.472.755.07.79-4.366-.414-7.388 5.753-12.44 6.576.928-3.24 5.298-2.815 6.627-5.283 3.359-2.265 8.204-5.837 11.848-8.923.795-.07 1.499-.925 2.219-1.784-.539-1.542-2.39-.166-3.076.684l.62-1.622c12.97-9.838 24.293-24.252 36.845-34.024l1.795-2.526c-6.155 2.118-9.904 9.176-15.983 11.27 3.607-3.843 8.137-6.216 9.26-11.04l.787.289 33.332-38.376.534 1.124 2.038-3.348.857.72c-.627-2.695 2.205-1.756 3.19-4.205 6.251-9.635 14.949-18.276 20.835-27.476l.784-.07c.036.418-.348.45-.713.87 3.907-.343 5.252-7.56 9.644-7.15 3.948-4.288 7.93-8.578 12.425-11.352l-1.658-1.037c.213-1.979 2.31-.605 3.025-1.452l-.581-1.523c11.354-1.38 18.733-11.522 31.054-10.606 2.472-3.364 5.95.28 8.698.448" />
  <path
     id="path16"
     style="fill:#ffffff;fill-opacity:1;fill-rule:nonzero;stroke:none"
     d="M827.581 149.826c-.406.036-1.468 1.337-1.573.137l1.573-.137M817.903 160.948l.418.367-4.497 2.745-.865-1.122c-1.848 1.74-4.215 1.566-6.03 3.344.48.697 1.231.245 1.614.212-3.468 1.478-5.187 3.6-8.647 5.09l2.772.128-5.041 1.27c.138 1.578-3.49.305-1.719 2.502 1.96.243 4.195-1.542 6.133-1.713-6.097 2.124-12.129 5.385-17.693 9.433l1.276 1.087c-1.45 1.28-2.348-.22-4.236.73.924 1.923-2.304.995-2.95 2.643-1.47.924-2.911 3.022-5.347 2.058 6.164-1.743 9.126-8.666 15.644-10.463l10.638-9.23-.3.855c3.071-.684 5.502-4.396 7.68-6.597l.484.73 6.531-6.457c2.836 1.315 4.21-1.164 6.507-1.796-.206-2.345 2.345-.205 3.024-1.798 1.845 2.985-3.707 3.085-5.396 5.982" />
  <path
     id="path18"
     style="fill:#ffffff;fill-opacity:1;fill-rule:nonzero;stroke:none"
     d="M813.62 161.727l4.11-2.747.762-.066zM806.515 161.563c.998 2.26-1.507.917-2.15 2.535l-.456-.727c1.61.217 1.064-1.292 2.606-1.808M815.981 161.52l-.034-.401.761-.067.035.402-.762.066M804.87 165.639l-1.17-.693 1.101-.096zM810.155 167.126c.072.817-1.722 2.525-3.259 3.074-.17-1.952 1.713-2.94 3.259-3.074M794.396 171.646l-.819-.282.788-.068zM806.49 170.235c-.698 1.204-1.794 2.128-2.927 2.227-.104-1.19 1.75-1.771 2.926-2.227M797.716 178.092l-.4.035c-.813-.724 1.11-.892 1.375-2.08.477.72-.23 1.593-.975 2.045M796.64 178.982c-5.287 2.809-8.82 7.48-14.907 9.984 5.664-2.467 8.718-8.272 14.907-9.984M780.261 190.27l-.429-.364.395-.035zM771.372 192.606l.856.709c-1.06 1.313-3.917.343-4.528 2.39-.685-3.48 3.293-3.066 5.457-5.215l-1.785 2.116M772.032 195.728l5.932-4.461c.24 2.745-4.056 3.503-5.932 4.461M760.907 194.73l.673-1.268.793-.07zM762.517 199.708c-3.44.682-5.386 5.982-8.624 4.708l-.105-1.21.781-.07-.357.468c.817.287 2.715-.237 2.236-1.393 1.233.653 2.976-1.852 3.764-2.301l-.82.072c.284-1.202 2.301-.998 3.024-1.442l4.056-3.501c1.057 3.055-4.263 1.145-3.955 4.67M771.372 196.963l-.863-.71c.418-.035.827.298.863.71M770.247 197.856c.465.71-.735.444-1.524.514l1.06-1.268.464.754M768.01 199.228c.031.378-.311.81-.311.81l-.068-.778.378-.032M766.52 200.142l-.332.813-.456-.744s.753-.47.788-.07M743.367 206.122l.253-1.591 1.183-.104zM753.995 205.572l.068.779c-2.463-.95-4.896 2.825-6.823 3.34l1.756-2.472c-.037-.423-.79.07-.424-.388l2.343-.205-1.236-.676.378-.034c.622 2.298 2.606-1.818 3.938-.344M747.107 208.168l.29-.81.434-.038zM743.097 212.08l3.42-1.912-3.352 2.68zM742.088 214.107c-.761.067-1.507.512-2.292.581l1.779-2.126c.412.389.481 1.178.513 1.545M738.97 214.379l-.789.07.338-.814c.737-.445.42.379.452.744M736.359 216.176l-.807.07.33-1.215c.373-.033.443.768.477 1.145M530.815 84.31l.358-.411 1.218.275zM503.82 91.422c-.725.837-3.955-.455-5.636-1.49l-.517-1.153c1.992-.175 4.425.812 6.153 2.643M536.524 86.579l.375-.42 4.493 1.976-.381.41-4.487-1.966M770.573 75.174c.068.778-1.529.514-1.929.55-.852-.721 1.087-1.277 1.93-.55M755.837 78.038c.034.382-.366.417-.718.862l-.415-.377.276-1.2 2.797.544-1.94.17M752.308 78.346l-.372.418-.824-.712c.723-.454.756-.066 1.196.294M759.733 77.696l-1.59-.258 1.161-.102zM747.999 78.723l-.035-.395 1.983.224.033.384-1.981-.213M744.141 79.447c.106 1.2-1.842 1.37-3.053 1.476.687-1.27 1.848-1.757 3.053-1.476M740.268 80.586c-.276 1.2-1.545.136-1.992-.212.792-.07 1.581-.14 1.992.212M720.044 83.53l-1.195.106c-.438-.73.34-.797 1.128-.866l.067.76M732.899 81.998l.036.406-1.623-.625c.795-.07 1.233.659 1.587.219M718.068 83.704l-4.19 1.548c.723-.825 2.562-2.581 4.19-1.548M727.467 82.882s.036.417-.348.45l-.406.036-.072-.822c.406-.036.79-.07.826.336M731.003 82.572l-1.994-.233 1.54-.135zM710.756 85.93l-1.17.102c-.035-.401.315-1.193 1.1-.892l.07.79" />
  <path
     id="path20"
     style="fill:#ffffff;fill-opacity:1;fill-rule:nonzero;stroke:none"
     d="M710.139 87.55c-.623-2.307-3.166-.114-5.188-.732.34-.411 5.33-2.012 5.188.733M721.319 84.602c-1.755 2.54-6.202 1.326-8.886 2.356 1.38-2.462 6.251-.927 8.886-2.356M691.78 89.572l8.855-2.377 3.15-.275zM689.884 90.51l-.103-1.178 1.202-.105zM704.712 88.44c-.359.412-2.644 1.816-3.905.723-4.812 3.59-11.67 1.81-16.947 4.652 6.024-3.305 13.475-3.957 20.852-5.375M680.932 92.106l3.85-1.15 2.351-.205zM666.49 93.744c.069.79-2.242.99-1.927.17l1.928-.17M682.232 93.162c-.712.858-2.27.994-3.019 1.434l-.102-1.161 3.121-.273M677.632 94.735l-6.495 2.164c1.12-.501 3.678-3.088 6.495-2.164M706.733 93.784c.064.73-.308.762-.689 1.238l-.475-1.135 1.164-.103M695.437 95.507c-.76.067-1.494.96-2.673.676.276-1.2 1.884-.927 2.673-.676M700.183 95.534c.034.384-1.91.94-3.059 1.04.725-.836 1.85-1.376 3.059-1.04M702.512 95.33c.033.384-.728.45-1.504.518-.099-1.138 1.128-.485 1.504-.518M706.903 95.719c-1.543.135-3.07 1.064-4.663.823 1.125-.9 3.12-.688 4.663-.823M679.623 99.282c-.722.876-2.678 1.046-3.812 1.554.25-1.624 2.682-1.018 3.812-1.554M631.267 105.478c-7.076 4.6-16.566 4.625-24.574 7.7 6.72-4.542 16.598-4.208 24.574-7.7M646.643 105.73l-1.994-.594 1.615.626zM602.06 114.35c-.688 1.253-1.888.972-2.667 1.04l1.774-2.138.893 1.098M587.437 118.402c2.167-2.156 7.227-2.6 10.364-3.26l-10.364 3.26M584.305 118.675c.103 1.168-1.5.939-2.285 1.007.31-.834 1.497-.938 2.285-1.007M543.687 127.774l.312-.823 1.641.227zM546.536 129.103l-.07-.8 1.614-.141zM536.785 129.956l-.07-.8 1.58.23zM545.813 129.167l-1.209.452-.437-.745c.782-.068 1.13-.468 1.646.293M543.445 129.72l-3.052 1.096c.782-.068 1.428-1.737 3.052-1.096M537.367 132.258l1.17-.103c-.698.85-1.796 1.748-3.406 1.48l2.236-1.377c-.412-.368-.764.066-.764.066.284-1.2 2.285-.602 2.993-1.858l-2.23 1.792M532.63 131.876c.417.356.453.756.52 1.54l1.574.255c-2.096 2.921-4.056-1.23-5.348 2.052-.101-1.167-.62-2.712.917-3.25l-5.828 1.3c1.858-1.725 4.568-1.962 6.66-.97-.104-1.167 1.128-.501 1.504-.927M548.63 130.096c.5 1.132-.73.836-1.067 1.27l-.103-1.167 1.17-.103M324.465 150.883l-3.112.273-.069-.79c1.137-.48 1.97.22 3.181.517M539.49 134.038c1.074-1.271 4.502-2.763 7.25-2.6l-7.25 2.6M520.616 134.512l1.137-.502 1.187-.104z" />
  <path
     id="path22"
     style="fill:#ffffff;fill-opacity:1;fill-rule:nonzero;stroke:none"
     d="m 525.836,135.61126 0.175,1.995 7.312,-2.236 c -3.03,1.418 -6.866,2.958 -10.27,4.426 l 2.544,-2.154 c -0.408,-0.407 -0.786,0.069 -1.197,-0.338 0,0 1.092,-0.864 1.059,-1.246 l -7.654,2.618 c 2.674,-1.03 5.422,-5.985 8.031,-3.065 m -5.119,0.061 c -0.305,1.214 -3.484,1.106 -4.945,2 0.899,-3.225 3.912,-0.341 4.945,-2 m -5.896,0.516 0.476,0.344 -0.72,0.864 -0.033,-0.382 0.277,-0.826 m 15.749,3.746 c 4.529,-1.987 10.233,-4.451 15.754,-4.934 l -15.755,4.934 m 5.143,0.35 16.077,-5.377 0.81,-0.07 z m -25.015,-1.782 0.42,0.406 -1.109,0.45 -0.4,0.036 1.09,-0.891 m -6.518,1.775 0.73,-0.474 -0.73,0.474 m -6.837,2.944 -0.408,0.036 1.788,-1.708 c 0.493,1.128 -0.614,1.605 -1.38,1.672 m -145.98,13.192 -3.646,-1.278 c 1.582,-0.138 3.163,0.11 3.646,1.278 m 201.214,-17.218 3.802,-1.52 -1.507,0.932 z m -199.258,17.046 -1.234,-0.692 1.164,-0.103 z m 168.011,-13.562 0.38,-0.033 -1.098,0.897 -0.381,0.032 1.1,-0.896 m 38.346,-3.354 c -1.102,0.896 -1.824,1.772 -3.409,1.54 0.75,-0.507 2.237,-1.438 3.41,-1.54 m -30.819,3.938 0.353,-0.473 0.397,-0.035 z m 26.591,-2.768 c -4.463,3.179 -11.907,3.83 -17.58,6.308 l 0.067,0.762 c -4.624,1.212 -11.548,3.385 -14.229,4.04 9.913,-3.662 20.903,-8.571 31.741,-11.11 m -53.374,7.458 -1.156,0.1 c -0.067,-0.766 0.722,-0.443 1.156,-0.1 m 14.862,3.04 10.207,-4.82 1.252,0.637 z m 23.788,-2.864 c -1.922,0.526 -0.957,2.446 -3.729,2.313 0.608,-2.041 2.247,-1.4 3.73,-2.313 m -13.247,6.254 0.28,-1.19 -1.615,-0.251 c 3.09,-1.053 6.237,-0.925 9.301,-2.364 l -7.966,3.805 m -134.8,9.855 -1.626,-0.652 1.176,-0.103 z m 73.673,-5.303 0.392,-0.033 -0.032,-0.368 -0.392,0.035 0.032,0.366 m 60.683,-4.861 c -0.34,0.377 -1.518,0.48 -2.246,0.97 0.323,-0.8 1.048,-1.313 2.246,-0.97 m -19.662,4.84 -0.033,-0.384 2.368,0.18 z m -6.836,3.369 c 0.66,-1.618 3.118,-0.686 3.743,-2.69 l 0.859,0.726 -4.602,1.964 m -113.187,22.515 c 8.746,-3.912 13.971,-7.517 22.786,-10.265 -6.35,3.709 -14.712,7.604 -22.785,10.265 m -38.539,14.432 c -0.727,0.83 -2.276,0.965 -3.023,1.457 0.288,-0.832 1.892,-0.972 3.023,-1.457 m -4.191,1.56 c -0.786,0.437 -1.42,1.68 -2.258,1.373 -0.038,-0.43 1.402,-1.725 2.258,-1.373 m 68.909,-0.923 c -1.658,-1.041 -1.522,0.515 -2.705,0.238 -1.45,1.689 -4.06,3.126 -7.62,3.438 -0.792,0.07 -1.962,-0.25 -1.693,-1.448 4.257,-1.168 7.59,-3.425 12.155,-5.386 1.597,0.24 -0.207,2.37 -0.138,3.158 m -46.288,2.466 0.035,0.394 -0.761,0.459 -0.446,-0.353 1.172,-0.5 m -46.506,9.562 -0.406,0.035 1.063,-1.65 c 0.036,0.418 0.521,1.513 -0.657,1.615 m -3.41,1.48 0.734,-0.832 0.364,-0.03 z m -0.82,-0.281 c 0.462,0.732 -0.733,0.837 -1.08,1.237 -0.07,-0.784 0.28,-1.166 1.08,-1.237 m -3.73,2.297 c 0.033,0.379 -1.543,0.516 -1.227,-0.301 0.41,-0.036 1.155,-0.52 1.227,0.301 m -3.425,1.476 c 0.069,0.779 -0.753,0.482 -1.531,0.55 -0.068,-0.784 1.154,-0.516 1.532,-0.55 m -3.411,1.474 -4.539,2.369 z m 78.317,-6.044 c -0.372,0.032 -0.72,0.824 -1.133,0.457 l -0.065,-0.745 c 0.378,-0.034 0.757,-0.48 1.198,0.288 m -3.747,2.288 -0.474,-1.158 1.165,-0.102 z m -82.162,7.188 c 0.821,0.722 -0.768,0.448 -1.527,0.929 -0.44,-0.757 1.148,-0.896 1.527,-0.93 m -3.404,1.906 c 0.03,0.355 -0.359,0.39 -0.764,0.425 l 0.693,-1.232 c 0.384,-0.033 0.455,0.774 0.071,0.807 m -1.925,0.527 c 0.07,0.794 -2.235,1.37 -1.99,-0.184 l 1.99,0.184 m -3.406,1.473 -1.644,-0.645 1.184,-0.104 z m 0.797,-0.069 -0.462,-0.335 1.181,-0.104 z m -7.627,3.025 c 0.07,0.788 -1.107,1.312 -2.299,0.996 0.35,-0.39 1.544,-0.495 2.299,-0.996 m -6.423,3.333 c 0.825,0.338 -0.368,0.442 -0.332,0.842 l -0.463,-0.772 0.795,-0.07 m -5.705,2.476 -0.067,-0.766 2.007,0.244 z m -6.82,2.96 c 0.42,0.77 -0.37,0.414 -0.703,1.248 -0.8,-0.31 0.265,-1.613 0.703,-1.248 m -4.096,3.136 -0.79,0.07 0.356,-0.827 c 0.398,0.357 0.434,0.757 0.434,0.757 m -3.006,1.439 -0.1,-1.167 0.783,-0.07 z m -5.7,2.471 -1.672,-1.031 0.808,0.31 z m -4.528,2.366 -1.169,0.103 0.28,-1.212 c 0.41,-0.036 0.477,0.743 0.89,1.11 m 353.113,-24.946 -0.276,-3.157 c 0.433,0.342 0.57,1.92 0.276,3.157 m -376.16,36.437 -0.779,0.068 c -0.036,-0.422 0.35,-0.804 0.741,-0.49 l 0.038,0.422 m 307.222,-8.756 0.068,0.778 -1.306,-1.466 c 0.728,-0.444 1.205,0.31 1.238,0.688 m 13.184,6.316 0.07,0.8 c -0.415,-0.321 -1.959,0.172 -1.276,-1.074 0.378,-0.034 0.79,-0.07 1.206,0.274 m -139.035,15.732 -3.32,-2.045 c 1.258,0.63 2.778,0.496 3.32,2.045 m 140.397,-13.442 -0.878,-1.1 0.41,-0.035 z m 0.865,5.437 -1.336,-1.888 c 1.161,-0.101 0.88,1.133 1.336,1.888 m -128.319,15.931 0.382,-0.034 9.156,5.93 0.037,0.424 -9.575,-6.32 m -100.689,12.393 0.07,0.79 c -0.44,-0.394 -1.986,-0.258 -0.9,-1.12 0.035,0.4 0.427,0.366 0.83,0.33 m -30.089,2.996 -1.995,-0.188 1.583,0.224 z m 12.909,-1.129 c -0.69,1.23 -2.713,0.669 -3.504,0.306 -0.032,-0.36 2.253,-0.964 3.504,-0.306 m -10.903,1.385 -0.826,-0.359 0.79,-0.07 z m 5.44,-0.907 -2.302,0.632 -0.038,-0.428 c 0.724,-0.426 1.591,0.292 2.34,-0.204 m -15.271,1.336 c -1.134,0.53 -3.002,1.87 -4.21,1.539 0.283,-1.196 3.141,-0.275 4.21,-1.539 m 330.103,-26.909 -0.42,0.037 -0.873,-0.725 c 0.37,-0.413 0.841,0.364 1.293,0.688 m 10.148,-0.889 -1.596,-0.223 1.192,-0.104 z m -187.491,20.369 -3.793,-2.395 3.724,1.6 z m 236.925,-18.756 -1.064,1.252 0.402,0.35 0.762,-0.453 c 4.554,2.358 12.59,4.035 15.092,10.15 1.034,2.669 3.19,5.197 5.736,6.985 -1.799,1.759 2.886,1.35 1.502,3.425 l -3.669,-0.89 0.07,0.802 c -1.66,-1.406 -4.009,-0.848 -5.595,-1.062 -2.09,-1.42 -4.354,-4.8 -6.619,-3.38 2.052,0.598 0.585,2.306 1.92,3.79 -0.416,-0.394 -0.784,0.068 -1.233,-0.322 l -0.343,0.46 c 0.412,0.317 1.299,1.052 0.963,1.872 -1.15,0.1 -2.447,-1.388 -3.134,-0.13 -2.594,-2.125 -2.604,-6.878 -5.08,-8.248 -0.405,-0.328 0.36,-0.394 0.323,-0.8 -1.217,-0.286 -2.061,-0.996 -2.548,-2.14 l 0.72,-0.858 -0.824,-0.331 -0.373,0.435 c -3.29,-1.678 -8.856,-6.338 -5.76,-11.694 l -0.107,-1.21 c 4.39,0.416 4.808,0.8 8.859,1.997 m -374.647,103.769 -2.43,-0.997 c 0.82,0.32 2.293,-0.57 2.43,0.997 m 79.137,-6.15 -0.033,-0.39 2.063,0.627 z m 6.731,0.206 0.065,0.756 -1.164,0.102 -0.098,-1.134 c 0.4,-0.034 0.845,0.71 1.197,0.276 m -73.704,9.595 c -1.127,0.503 -3.932,-0.036 -5.22,-1.133 2.013,0.652 3.992,0.48 5.22,1.133 m 82.038,-8.768 c -0.334,0.467 0.867,0.753 0.106,1.201 l -1.161,0.102 c -0.86,-0.698 0.684,-1.271 1.056,-1.303 m 5.659,1.499 0.033,0.378 -1.228,-0.677 c 0.41,-0.036 1.126,-0.479 1.194,0.299 m 3.131,-0.274 c 0.517,1.13 -1.977,0.174 -2.336,0.204 l 2.336,-0.204 m 4.793,0.756 -3.548,-0.07 3.176,0.104 z m -68.901,14.328 c -0.372,0.424 -0.733,0.838 -1.128,0.87 l -0.395,0.036 c -0.066,-0.767 1.086,-1.238 1.523,-0.906 m -4.792,107.651 -0.863,-0.699 0.796,-0.07 z m 61.728,15.913 c 0.033,0.388 -0.333,0.812 -0.721,0.847 l -0.403,0.035 c -0.035,-0.39 0.335,-0.814 1.124,-0.882 m -5.008,1.647 c -1.084,0.901 -2.637,1.396 -4.24,1.177 1.16,-0.493 2.728,-1.045 4.24,-1.177" />
  <path
     id="path24"
     d="M 490.95312 61.388672 C 483.86512 61.595672 481.74608 68.891594 479.83008 74.183594 C 477.91008 74.351594 474.29661 73.900453 473.72461 76.314453 C 474.63961 77.814453 474.47945 80.565328 476.81445 80.361328 C 473.06445 95.669328 470.41202 110.89977 472.16602 126.13477 C 469.53802 133.13077 478.84866 145.29467 475.22266 150.88867 L 475.86914 150.66992 L 476.76367 151.77148 L 465.67773 155.86133 L 465.57812 154.71289 L 465.30078 155.89453 L 455.4082 159.90234 C 452.8102 161.72634 448.00094 160.99709 446.96094 162.62109 L 445.6875 161.54688 L 462.07031 155.01953 L 444.49805 161.65039 C 441.19505 160.00239 435.67872 160.081 433.51172 157.875 C 427.16672 157.265 420.57914 153.89434 413.74414 152.90234 L 412.88867 151.81836 L 412.12305 152.24219 C 409.17705 150.15219 405.78714 151.65923 403.24414 149.49023 C 395.15014 147.46623 386.33514 145.85744 377.99414 145.02344 C 357.57714 141.66944 334.64578 140.8982 315.17578 143.7832 C 312.48778 140.1032 319.59558 135.92159 312.76758 134.55859 C 309.22758 134.48159 306.82828 138.63952 305.48828 141.10352 C 306.09028 166.26852 314.41517 189.2337 324.20117 211.2207 L 320.4668 213.5293 L 323.17969 212.51953 C 322.86969 213.68953 320.53578 214.31222 319.42578 215.19922 C 316.13978 213.48922 311.75222 217.44944 308.69922 218.52344 C 310.27822 218.77844 312.09519 216.63597 313.74219 217.66797 C 311.82219 218.24997 309.20916 219.63295 307.53516 218.62695 C 306.03916 219.50695 302.24327 221.05331 302.69727 222.19531 C 293.77827 223.78731 286.76033 229.08973 278.73633 232.17773 L 280.69141 232.00781 L 279.9707 232.86328 C 278.9767 234.92228 276.66789 235.50597 275.33789 234.04297 L 257.92773 242.27539 L 257.99609 243.05273 C 257.33409 244.28773 255.26772 243.29091 255.63672 242.87891 L 240.11133 250.53125 L 240.76758 248.88281 C 240.04158 249.73081 238.52609 250.28911 238.99609 251.41211 L 192.17578 274.85352 L 187.94922 276.01562 L 188.36328 276.35156 L 186.875 277.26367 C 180.319 279.03567 176.7652 283.67169 171.4082 285.30469 L 171.82227 285.71484 L 166.0918 287.75195 C 109.9718 317.94395 53.541172 349.26748 1.3261719 387.77148 C 0.78017184 390.56348 3.9873906 391.09009 5.6503906 392.12109 L 0 399.70312 C 3.377 397.81813 6.8342032 401.09991 10.283203 400.00391 L 32.056641 387.45898 C 87.797641 357.31998 143.10567 326.85916 200.76367 300.91016 C 206.15967 313.01016 214.16512 323.41525 226.32812 331.40625 C 229.42712 335.49125 235.09386 337.34281 239.38086 340.88281 C 248.88086 350.74781 260.56378 358.01241 272.80078 362.44141 L 272.07031 363.29102 C 275.38131 365.36402 278.02078 363.56439 280.67578 367.27539 C 287.80578 367.43639 293.36275 372.44752 300.21875 373.85352 C 302.16675 373.68252 304.07191 373.10213 305.00391 374.57812 L 304.61523 374.61133 L 308.64453 375.88281 L 307.56836 377.14258 C 309.41236 375.42458 311.63111 377.96281 313.91211 377.38281 L 314.53906 375.74805 C 314.96006 375.71105 314.99502 376.08808 315.41602 376.45508 L 315.0293 376.49023 L 318.23633 377.00391 L 314.74414 378.09375 C 315.97614 377.98575 316.76748 378.30892 317.64648 379.41992 C 316.25048 381.13192 314.30633 377.34683 311.73633 379.17383 C 318.17233 380.96283 324.62292 382.73925 331.29492 382.15625 C 330.97092 382.99125 329.75655 382.29155 330.18555 383.06055 C 331.03955 383.76855 331.76094 382.92289 332.08594 382.08789 L 332.61719 383.63086 L 333.2832 382.37305 C 334.3752 381.50505 336.45945 382.51094 336.56445 383.71094 L 333.45508 384.35156 C 335.04508 384.60556 337.38664 384.00784 339.30664 383.83984 C 340.16464 384.53784 341.40761 385.21447 341.47461 385.98047 C 270.19061 405.24347 203.29775 433.59627 142.46875 472.82227 L 141.65234 472.52148 C 141.68434 472.88948 141.7185 473.27845 141.3125 473.31445 C 128.9545 471.63945 129.21186 488.19486 119.17188 490.63086 L 122.25586 489.97852 C 121.33386 492.82552 117.95113 494.68891 118.57812 497.37891 C 115.45914 498.05491 120.95697 501.9207 116.66797 502.7207 C 118.27797 502.9397 118.44419 504.8833 119.36719 506.4043 C 116.01119 508.6583 121.7757 511.29922 122.7207 513.19922 L 119.5957 513.47461 C 136.6367 523.45261 155.57636 528.11234 175.44336 529.90234 C 200.03336 531.27934 226.65245 533.67653 251.31445 531.51953 C 296.47545 529.59553 338.60095 524.30983 378.87695 511.29883 L 381.07617 509.51562 C 381.80596 509.39898 382.54792 509.24078 383.29688 509.0625 L 386.72461 548.23828 L 992.25391 495.26367 L 976.44141 314.53516 L 700.87109 338.64453 C 705.99147 339.90412 709.4686 343.5739 710.06641 350.39844 L 710.06445 350.39844 C 710.82645 359.09944 705.98969 364.32292 696.30469 365.16992 C 687.27369 365.95992 681.15561 362.19305 680.34961 352.99805 C 679.77506 346.42244 682.55759 342.02251 687.59375 339.80469 L 687.44727 339.81836 C 691.87378 334.35696 695.44949 328.51764 696.66406 321.41602 C 691.42206 324.63102 698.21058 316.12919 693.14258 317.36719 L 693.78516 315.35156 C 691.42916 315.55756 689.56736 312.56191 690.56836 310.50391 L 689.4668 311.39453 C 688.2048 310.33053 690.02105 308.61494 689.12305 307.46094 C 687.59605 307.59494 685.61722 307.76675 685.44922 305.84375 C 684.72722 306.69075 684.42216 307.5115 683.66016 307.9375 C 678.65516 304.8355 681.67763 298.6633 677.76562 294.6543 L 677.62891 297.45508 C 674.50491 297.72908 673.46931 295.03116 670.69531 294.91016 C 669.46731 289.83816 665.65586 286.6435 662.88086 282.1875 L 662.08789 282.25781 L 661.88086 284.24609 C 665.72786 287.45409 668.91131 292.29961 669.69531 296.97461 L 668.53516 297.07422 C 669.31316 301.71822 666.15636 305.92959 663.69336 309.68359 C 662.92736 309.75159 662.85908 308.97367 662.45508 308.63867 C 658.64708 310.12667 660.40241 303.65523 658.06641 303.49023 C 657.61641 307.46623 657.99156 311.76355 656.72656 315.43555 C 651.47656 314.32755 652.11941 308.33406 647.31641 307.16406 C 647.28241 306.77406 647.28381 306.77477 647.63281 306.38477 C 646.53681 307.23177 644.22845 307.84781 643.31445 306.38281 C 641.54745 308.47481 637.85037 307.24177 635.23438 308.63477 L 635.19922 308.22461 C 631.77322 309.72761 628.13752 308.84239 624.60352 309.15039 L 626.00977 307.05859 C 624.19577 304.48359 627.69323 303.76733 628.24023 300.98633 L 626.22266 300.36328 C 625.62866 298.06828 631.06792 297.18448 627.79492 295.89648 L 628.99219 295.79297 L 627.11133 292.37891 C 625.33033 290.17191 629.26573 289.82537 629.92773 288.60938 L 629.0293 287.11914 C 632.0953 286.44214 628.71958 283.58073 629.76758 282.30273 C 629.30958 281.56273 628.4787 280.83439 627.7207 281.27539 C 627.2147 280.18239 625.47202 278.37639 627.41602 277.77539 C 626.36102 274.68539 624.01786 279.64078 622.92188 276.55078 L 623.27148 275.76758 L 623.71094 276.13867 L 624.99219 272.88477 C 623.30019 271.43677 622.52227 267.1767 620.32227 268.9707 L 620.74219 269.30273 L 619.59375 269.7793 C 617.58175 269.2093 614.5248 270.22136 614.5918 266.69336 L 613.83203 266.75977 C 611.81103 266.50577 611.98173 268.46297 610.92773 269.79297 C 606.97573 269.71297 601.23277 271.77173 599.63477 266.80273 L 601.93164 266.17773 L 601.51367 265.84961 C 600.03367 267.17161 596.29255 264.76684 596.56055 267.83984 C 593.81855 268.07984 593.66147 270.87791 591.35547 271.50391 L 592.21289 272.17383 L 589.97852 273.95312 L 589.10156 272.83203 L 588.43164 273.68555 L 587.92383 272.93555 C 586.57383 275.41055 583.36381 274.93167 581.50781 276.26367 C 581.06281 275.55367 579.89827 275.65359 579.57227 276.43359 C 572.93127 277.43959 566.13963 280.76678 563.14062 286.92578 C 561.49563 286.31878 559.5052 290.82109 558.0332 287.37109 C 573.2732 267.55309 598.05834 248.79495 624.40234 257.12695 C 623.17234 256.44595 622.24861 254.93487 620.59961 254.29688 C 625.32561 253.88288 629.95911 257.43752 634.16211 260.60352 L 634.83984 259.36719 L 643.89648 263.69922 L 640.9082 260.86328 L 641.57031 259.95508 C 636.06031 254.93808 631.00514 251.43314 624.74414 247.24414 L 625.88477 246.75195 L 621.83008 245.52734 L 622.66406 246.27148 C 619.05706 245.77048 613.6702 247.05816 611.1582 245.28516 C 613.6682 242.71316 612.9188 238.45608 612.2168 234.95508 C 615.0748 227.19108 611.89283 218.00436 614.42383 210.69336 C 615.25183 211.01136 616.57023 212.85805 617.24023 211.62305 C 619.26423 216.19505 617.96422 224.18295 624.69922 224.37695 C 625.72022 222.69895 624.00063 220.88831 623.14062 219.82031 L 623.93555 197.61914 L 625.04492 196.75977 C 626.31592 180.07377 635.33833 165.87808 641.48633 150.33008 L 640.46484 147.6875 C 642.99584 140.3485 645.88856 133.03466 647.97656 125.34766 C 650.92356 123.11266 649.24795 117.32797 652.75195 116.66797 L 651.89062 115.92188 L 653.66992 113.78125 C 653.99292 112.95825 653.56698 112.61525 652.70898 111.90625 L 653.42969 111.04883 C 662.32469 118.16783 674.44352 126.18377 679.72852 136.75977 C 672.82252 129.85977 665.81558 121.81086 656.76758 117.88086 L 656.1875 120.26562 C 659.6775 123.52164 664.62845 126.24639 666.06445 129.27539 C 661.98245 128.03639 660.46548 123.84077 656.39648 122.63477 L 662.01953 128.44141 L 655.35547 124.28711 L 654.73047 125.91016 C 660.02047 132.16716 669.13973 137.26086 672.55273 144.88086 C 666.78073 141.85886 664.30919 136.15958 658.61719 134.26758 C 656.87119 132.44358 652.91727 127.6462 650.44727 131.0332 C 650.88327 131.3532 651.27273 131.32094 651.67773 131.71094 L 650.95117 132.14844 L 657.76172 138.25586 L 657.41992 138.71289 L 671.09961 150.92773 L 669.5293 150.67188 C 678.0073 157.82188 683.92812 166.7162 688.32812 176.6582 C 697.00812 194.7882 688.66063 216.02542 686.76562 235.10742 C 689.65364 236.43442 686.8695 240.65481 688.9375 242.00781 C 690.8515 241.06781 690.26914 239.18283 690.95312 237.92383 C 701.45312 218.04383 707.57219 198.18678 707.99219 175.67578 C 706.51519 172.65878 708.84608 167.73966 706.58008 164.34766 C 707.03108 164.69466 706.96619 163.95667 707.74219 163.88867 C 705.89919 156.55667 705.14586 147.94763 702.50586 140.26562 C 694.64386 126.77463 682.91697 114.79695 672.04297 103.12695 L 701.45703 96.609375 C 692.00703 96.635375 681.27614 100.35772 670.49414 103.26172 C 668.85214 102.59872 669.88569 100.94677 669.55469 101.38477 L 668.75195 101.45312 C 667.88195 100.30912 666.20364 99.279578 665.30664 98.142578 C 666.07064 97.755578 668.51084 98.691234 668.33984 96.740234 C 667.54284 96.424234 666.7982 97.278703 666.0332 97.345703 C 664.9052 97.858703 662.9085 97.619719 663.1875 96.386719 L 679.39258 92.240234 L 673.99219 93.470703 C 669.70719 94.258703 664.45166 97.079766 661.09766 95.009766 C 659.03866 94.395766 655.62878 91.134 653.55078 94.5 C 655.67278 100.616 646.06033 99.091098 642.73633 101.74609 C 646.23033 101.02609 650.42022 99.126531 653.19922 99.644531 L 633.60938 105.27148 C 640.74238 105.47748 646.68247 101.78248 652.60547 101.64648 L 649.80273 105.45117 L 649.27734 104.31055 L 646.0625 108.16602 L 583.35352 125.88281 L 578.06445 119.60156 C 599.15445 112.64956 620.41986 108.02261 641.63086 102.22461 C 621.07386 106.37061 598.72825 112.30761 578.03125 119.22461 C 570.56125 110.43661 561.98484 102.88759 552.71484 95.808594 L 553.4707 95.34375 C 551.0697 95.16175 549.8047 94.073172 549.9707 91.326172 C 548.3327 95.401172 545.10258 89.769266 543.14258 90.322266 L 547.7793 93.507812 C 545.9753 95.204814 543.85414 93.442234 541.86914 93.615234 C 525.97914 83.183234 509.71477 72.744484 490.63477 71.271484 C 491.11877 68.071484 492.04414 65.231672 490.95312 61.388672 z M 687.59375 339.80469 L 700.87109 338.64453 C 698.84797 338.14685 696.57555 338.01327 694.11133 338.22852 C 691.65694 338.44351 689.47353 338.97687 687.59375 339.80469 z M 475.22266 150.88867 L 466.30078 153.8418 C 471.34878 153.8938 474.01166 152.76267 475.22266 150.88867 z M 488.65039 85.429688 C 491.16581 85.254879 493.28303 88.295828 495.95703 87.361328 L 495.7168 88.597656 L 496.90234 88.845703 C 496.83534 88.085703 496.43519 88.120953 495.99219 87.751953 C 496.73219 86.912953 497.46417 86.460234 498.70117 86.740234 C 499.79717 90.177234 504.22592 87.030609 506.41992 89.599609 C 507.41692 91.880609 503.99153 93.366469 503.26953 94.230469 C 503.37153 95.403469 504.60961 95.698469 505.34961 95.230469 C 507.04961 101.39847 513.01952 102.06428 517.97852 104.36328 C 522.58852 107.52228 526.36978 110.29977 531.30078 112.25977 C 536.60478 118.90077 545.32998 123.64878 550.58398 129.92578 L 550.23438 130.33594 C 553.63238 128.82994 554.11481 134.32691 556.50781 134.50391 C 550.06381 137.44291 539.9698 139.50037 533.5918 142.85938 C 530.0938 143.92638 532.86703 143.68209 530.70703 145.87109 L 551.4043 139.30664 C 551.1643 136.54964 555.52283 136.9637 557.79883 135.9707 C 560.62883 141.2557 565.74705 141.19406 567.37305 146.16406 L 567.02148 146.61914 C 579.12948 163.28914 592.39506 179.86511 597.66406 199.53711 L 596.24805 201.21875 L 597.79883 201.08203 C 597.86883 201.87003 597.52073 202.32236 597.55273 202.69336 C 600.49573 209.14636 599.0672 215.57553 602.0332 222.39453 C 600.1292 227.71353 603.85923 234.09533 603.99023 239.98633 C 601.82823 242.53933 605.75931 242.61072 605.19531 245.01172 C 564.04831 256.87772 527.75786 288.06133 521.75586 332.36133 C 522.37538 339.44913 524.36689 347.37185 527.22461 353.83594 L 370.91211 367.51172 L 370.99609 368.47656 C 313.61565 361.69153 258.42541 346.07527 215.56641 303.14453 C 223.29441 301.66753 232.68022 300.46389 240.82422 298.96289 C 245.99922 299.67989 251.50725 299.19973 255.65625 297.30273 L 255.6875 297.66211 C 255.6575 297.30211 257.09892 295.98108 258.04492 297.45508 C 267.50092 297.41808 278.61842 293.70559 288.10742 294.05859 C 294.06742 294.73559 299.66655 291.07637 303.43555 293.48438 C 302.64355 293.55437 301.81744 293.26223 300.64844 293.36523 C 302.74544 294.71523 306.18309 293.67522 308.12109 293.07422 L 304.54492 292.61914 L 308.375 291.10352 C 321.743 290.69052 340.63139 290.23152 353.52539 289.10352 C 353.95139 289.85552 354.76103 289.7837 354.83203 290.5957 C 363.44403 289.8427 372.77077 292.55486 381.25977 290.63086 L 381.43164 292.59766 C 392.06464 292.42766 402.35236 292.73884 412.10938 296.21484 L 409.98047 294.42773 C 415.16147 295.15073 421.78805 298.54264 426.24805 295.80664 L 451.28711 306.99414 L 452.01172 306.15234 C 453.25472 306.82234 452.97967 308.01587 453.01367 308.42188 C 455.24467 306.64688 457.88731 309.94945 459.69531 308.18945 C 456.41131 306.92945 455.00519 303.91434 451.36719 303.02734 C 451.95419 300.64034 453.69283 302.8245 454.79883 301.5625 C 448.38383 300.5445 443.61116 295.42148 437.16016 294.02148 L 437.47656 293.19922 C 434.68756 292.67622 431.71058 290.58958 429.64258 289.14258 L 429.95703 288.35156 L 425.39258 286.02344 L 424.29297 286.86523 C 423.87397 286.52523 423.43258 285.77084 422.64258 285.83984 C 422.57258 285.03484 423.36297 284.96492 423.29297 284.16992 C 420.82097 283.21592 418.0135 282.26888 416.1875 279.67188 L 417.35742 279.22266 C 413.16542 276.40266 408.95739 273.59692 404.90039 272.41992 L 406.56055 273.44727 C 402.67855 273.78727 403.66384 271.7115 399.96484 270.4375 L 400.7168 269.63281 C 396.9168 266.78481 394.16628 262.71297 389.36328 261.54297 L 392.7168 264.01562 C 389.4068 266.67863 389.7068 261.09762 387.7168 260.89062 L 388.50391 260.82227 C 385.82891 257.13527 383.66883 254.95113 379.17383 253.32812 C 372.47983 244.50612 359.60616 236.52689 353.16016 226.46289 L 366.40234 219.76953 L 365.54492 219.04492 C 365.93492 219.01092 366.30169 218.60331 366.67969 218.57031 C 367.47269 218.87531 366.78022 219.73608 367.19922 220.08008 L 373.96484 216.34766 L 377.79883 214.83008 C 377.84883 211.29808 383.81663 211.53859 386.76562 209.30859 L 387.65234 210.43945 C 390.60634 208.18245 394.14359 207.87277 396.68359 205.25977 L 395.85547 204.95117 C 402.45247 199.26117 414.76789 195.83802 424.21289 191.41602 L 420.12305 194.19141 L 421.35938 194.45312 C 429.62038 189.78913 437.52567 185.54792 446.76367 182.79492 C 446.86935 183.05015 446.80035 183.23244 446.65625 183.35742 L 446.65625 183.35938 C 446.96125 183.26638 447.26831 183.20427 447.57031 183.07227 C 452.56031 186.21427 459.99878 189.8972 465.05078 193.7832 C 468.65678 194.2582 469.60608 196.14734 472.08008 197.52734 C 477.23008 202.18834 484.47528 203.89791 488.11328 209.50391 C 495.30528 214.79891 501.37711 221.3793 508.28711 228.2793 C 510.40511 234.3763 516.41653 239.7747 520.39453 244.9707 C 522.39153 245.1877 523.99558 245.04742 525.01758 243.35742 C 526.84858 242.03142 527.11678 245.11086 528.05078 246.63086 C 527.98478 245.88686 529.20519 246.16014 529.61719 246.49414 C 529.23719 246.52714 529.27019 246.91536 528.49219 246.98438 C 529.33919 247.70437 530.10183 247.6387 530.92383 247.9707 C 529.85983 249.2507 533.49622 250.09767 531.19922 251.13867 C 536.93122 253.32367 537.2772 262.01084 544.0332 262.21484 L 540.46484 257.4043 L 541.86719 257.49609 C 541.14419 257.19009 540.52339 256.52736 540.02539 257.44336 C 540.63339 254.98236 536.86884 252.6025 537.96484 251.6875 L 536.86914 252.60352 L 535.12305 250.79492 L 537.00391 249.79102 L 535.73438 248.73828 L 535.41992 249.92969 C 534.35992 246.86269 531.37784 244.00906 530.33984 241.28906 C 530.67552 241.25965 530.99924 240.96527 531.10156 241.11523 L 530.55859 239.33398 L 531.75195 239.23047 C 530.89695 238.50847 530.03178 237.79053 529.55078 236.64453 L 528.79688 237.10156 C 527.50387 235.65856 526.19325 234.56242 526.40625 232.60742 C 527.36625 229.74642 521.21602 227.14762 524.16602 224.51562 L 522.04102 222.71875 C 522.35302 222.28675 522.76181 221.84941 523.13281 221.81641 C 518.88981 213.93441 513.78164 205.28547 509.55664 197.35547 L 510.21094 196.15625 C 504.31094 186.82625 500.50105 175.29428 496.87305 165.36328 L 497.69336 165.70508 L 496.83984 164.96875 L 523.97656 154.69727 C 523.49656 153.94527 520.3763 154.21816 519.2793 155.53516 L 519.72656 156.25781 C 516.59956 156.53081 514.75261 157.89175 511.97461 157.71875 C 511.25161 158.19675 509.67455 158.33436 510.56055 159.44336 L 497.55664 164.13477 L 497.10352 163.37891 L 499.78906 162.35742 C 498.12906 161.69742 497.17214 164.16617 495.86914 162.70117 C 504.45514 157.59317 512.99603 155.65927 522.95703 152.44727 L 522.12305 151.75195 L 522.81836 150.86133 C 514.74336 153.16533 506.68563 155.86461 499.51562 159.22461 C 497.95963 159.74761 494.95114 161.21966 494.74414 158.84766 C 499.30714 156.85766 505.48047 155.15045 509.98047 152.81445 L 511.88086 152.03711 L 511.86328 151.82227 C 515.67128 149.90227 518.05675 146.18202 522.34375 145.41602 C 522.40975 146.18302 521.64369 146.25011 521.67969 146.66211 C 523.49769 144.89011 526.66036 145.039 527.69336 143.375 C 525.66936 142.734 523.3603 143.31022 521.7793 143.44922 L 528.97266 140.08203 C 523.15466 140.97103 519.5905 145.23158 514.6875 148.01758 L 513.83203 147.34766 C 511.97203 148.69166 509.53586 147.72356 507.29688 149.10156 C 506.83988 149.14156 506.25072 148.90745 505.88672 148.56445 C 503.47172 149.43645 498.14834 148.81445 497.27734 151.93945 C 495.57534 150.51445 494.3582 149.7963 492.4082 150.4043 C 495.3682 148.1683 502.839 146.94259 505.875 145.05859 L 506.09961 147.60938 L 508.7168 147.38281 C 510.8818 145.21581 512.24622 147.07192 514.44922 145.29492 C 512.88922 141.07992 519.38386 142.85978 520.75586 140.80078 L 519.9375 140.08789 C 516.21132 141.92225 512.02627 143.3117 508.09375 144.64648 L 507.58008 143.53125 C 509.49108 142.58625 512.62423 142.31286 513.61523 140.25586 C 511.69623 140.79886 505.93559 142.47711 502.18359 144.78711 L 502.34375 142.6582 C 498.91575 144.1622 495.51816 145.8755 490.66016 148.1875 L 489.66211 145.88477 L 494.99219 143.85352 C 492.99619 143.60952 491.51386 144.54573 490.00586 145.42773 C 488.54186 142.02773 487.87548 138.93897 486.39648 135.54297 C 486.09448 118.58797 483.48392 102.25166 487.54492 85.722656 C 487.9233 85.545406 488.29104 85.454659 488.65039 85.429688 z M 502.34375 142.6582 C 503.17575 142.2832 504.02023 141.93994 504.86523 141.58594 L 502.35938 142.41016 L 502.34375 142.6582 z M 504.86523 141.58594 L 515.80469 138.06445 C 511.23969 139.27445 507.90523 140.39094 504.86523 141.58594 z M 519.9375 140.08789 C 520.56901 139.777 521.19155 139.45572 521.79297 139.11719 L 519.92578 140.07812 L 519.9375 140.08789 z M 511.88086 152.03711 L 511.93555 152.64258 L 513.7793 151.27734 L 511.88086 152.03711 z M 446.65625 183.35742 C 445.78025 183.62542 444.86828 183.81127 443.73828 184.19727 C 444.60428 183.83427 446.17625 183.83142 446.65625 183.35742 z M 653.98633 108.63086 L 662.91797 115.7793 C 662.15397 116.1993 660.78719 114.34817 660.11719 115.20117 C 657.99719 113.40317 654.32833 112.54986 653.98633 108.63086 z M 643.21094 111.55664 C 642.62594 113.57464 640.56748 116.91111 638.27148 118.28711 L 639.53711 118.96289 C 639.15511 119.42289 639.18566 119.7655 639.22266 120.1875 C 637.20866 119.5905 636.64989 121.97486 635.96289 123.63086 C 636.13389 125.58286 632.46428 128.30034 631.61328 131.90234 C 624.01728 149.12634 616.52903 167.13644 617.45703 186.77344 L 616.39453 188.00781 C 610.11453 165.70381 599.62122 144.97186 585.44922 127.25586 L 643.21094 111.55664 z M 634.22852 112.3418 C 631.60052 113.7538 629.20709 113.57556 626.12109 114.60156 C 627.99609 113.27356 631.56752 113.3708 634.22852 112.3418 z M 625.36523 115.08203 L 593.06641 124.22656 L 624.63672 115.14648 L 625.36523 115.08203 z M 681.29688 136.62305 L 686.17188 142.89453 C 684.13688 141.87453 681.94988 139.32005 681.29688 136.62305 z M 500.92383 144.11523 C 501.40083 144.85823 500.16517 144.54089 500.20117 144.96289 C 500.16517 144.54089 500.57683 144.14623 500.92383 144.11523 z M 315.41797 146.53516 C 317.63497 149.13016 321.48348 148.3567 324.39648 150.0957 L 325.35156 151.5957 C 333.39256 153.6377 341.16567 152.57544 349.88867 153.02344 C 349.62067 154.60344 351.22458 154.83758 352.01758 154.76758 C 353.55158 154.25758 354.03158 155.38633 354.89258 156.11133 C 364.09358 157.68733 372.18097 159.7398 381.66797 160.0918 C 392.29997 164.2798 404.17884 165.17956 414.08984 170.22656 L 413.73828 170.67188 L 415.35938 171.32422 C 414.33238 172.99922 411.27028 174.05695 410.48828 174.12695 C 410.34128 176.87695 413.60566 173.45445 415.59766 174.06445 L 414.91016 174.91992 L 415.32422 175.26953 C 412.98722 175.47553 410.02406 177.70342 406.91406 178.35742 L 407.19141 181.51562 C 409.04441 179.76263 411.37972 179.55766 413.26172 178.59766 C 412.19272 179.86666 409.49241 180.48344 409.94141 181.27344 C 412.33241 181.46144 414.45837 178.90691 416.73438 177.87891 L 418.67773 177.9668 C 415.95673 178.4118 413.46856 182.38197 409.97656 181.66797 L 408.14844 182.98633 L 408.83203 181.76758 L 405.61719 181.65234 C 406.81719 181.54734 407.45927 179.89984 406.19727 179.21484 C 400.32327 179.72984 394.35675 183.39934 388.21875 185.52734 C 383.92675 185.90234 378.55811 187.53181 374.41211 189.88281 C 369.02611 191.15481 362.84722 192.85834 358.44922 196.77734 C 366.10922 194.13534 374.06788 190.29227 382.17188 188.44727 C 382.17188 188.44727 382.76123 190.70714 384.61523 189.36914 L 381.65625 191.62891 L 383.68164 192.24023 L 382.90234 192.30859 L 383.74805 192.97852 L 383.36914 193.01172 C 383.41314 193.51772 383.40823 193.70794 383.36523 193.83594 L 383.44141 193.83008 C 383.41141 193.83208 383.38814 193.86714 383.36914 193.86914 L 383.36523 193.83594 C 381.40423 194.00594 377.56563 194.36548 377.01562 196.77148 L 375.75781 196.47266 L 376.84375 194.82031 C 372.55575 195.93531 369.60875 197.80653 364.96875 199.01953 C 370.53575 194.95953 374.99405 196.53898 379.74805 192.58398 C 377.26405 190.81898 372.80164 193.93773 370.05664 194.17773 C 371.15664 193.33573 373.17402 193.90481 373.04102 192.38281 C 366.35102 192.14281 360.54759 197.80256 354.68359 198.72656 C 354.64859 198.32056 354.22831 198.35666 354.19531 197.97266 C 353.81931 200.36266 351.09863 200.74669 348.64062 201.55469 L 351.6582 200.18359 L 350.80078 199.45117 L 340.95508 204.23242 C 340.99108 204.63842 341.3993 204.60231 341.7793 204.57031 C 340.6413 205.06731 338.68627 205.23892 338.82227 206.79492 L 338.01758 206.48242 C 337.58958 206.10642 340.67611 205.45556 339.78711 203.97656 L 337.12695 205.375 C 325.67395 187.056 318.08097 167.97516 315.41797 146.53516 z M 505.34961 149.05078 C 505.93531 149.05838 505.61617 152.29594 505.52148 151.21875 C 505.07748 151.18875 504.43633 151.26625 503.73633 151.40625 L 503.2168 152.20312 L 495.42383 155.37109 C 495.64483 154.05209 500.60133 151.99425 503.73633 151.40625 L 505.2207 149.09375 C 505.26814 149.06331 505.31056 149.05027 505.34961 149.05078 z M 507.75781 149.85547 C 506.20481 150.35047 507.8583 151.01141 506.6543 150.69141 L 507.36719 149.89062 L 507.75781 149.85547 z M 512.10547 150.21484 L 510.21289 150.80664 L 511.72461 150.24805 L 512.10547 150.21484 z M 502.94141 153.43164 C 501.60241 155.86164 497.99777 155.41497 495.75977 157.16797 C 497.99777 155.41497 500.68241 154.79964 502.94141 153.43164 z M 477.07227 155.27344 L 477.95312 156.38477 L 475.72461 157.75391 L 476.55469 158.5 L 473.87109 159.08203 C 473.79509 159.40203 473.84403 159.55548 473.95703 159.64648 C 473.05403 159.69148 472.03745 159.92556 470.06445 160.60156 C 470.52745 161.75956 472.40177 160.39816 474.00977 160.66016 C 469.03277 162.68616 461.31214 164.16334 456.36914 166.52734 C 455.67514 167.41734 454.81725 166.66313 454.40625 166.32812 L 456.45312 165.49414 C 456.80813 164.73514 457.68589 164.77141 458.46289 164.69141 L 456.45312 165.49414 C 456.40612 165.59314 456.32273 165.61805 456.30273 165.74805 C 460.93373 164.95105 465.91997 162.95817 468.79297 159.95117 C 466.39197 159.39017 462.3458 162.86192 460.5918 161.04492 C 458.4938 163.60892 454.13234 163.19481 453.15234 165.63281 C 452.60034 164.12281 451.15808 165.80609 450.33008 165.12109 C 457.91308 161.66509 465.40556 157.09005 473.60156 155.99805 L 468.65625 158.37305 C 470.68025 158.56605 474.87427 157.05544 477.07227 155.27344 z M 359.17773 155.31836 L 359.21289 155.73438 L 358.8125 155.76953 L 358.77734 155.35156 L 359.17773 155.31836 z M 494.9082 156.07617 L 493.41016 157.02539 L 494.09375 156.14844 L 494.9082 156.07617 z M 456.11523 160.48828 C 456.269 160.49094 456.44387 160.51992 456.64844 160.58789 L 455.08984 160.72461 C 455.38234 160.69986 455.6523 160.48027 456.11523 160.48828 z M 479.98047 161.31836 L 480.43359 162.08008 L 479.67578 162.55664 L 479.98047 161.31836 z M 463.47266 162.27344 C 463.59902 162.28002 463.73672 162.30134 463.88672 162.33984 C 463.14072 162.79184 462.34503 162.86289 461.20703 162.96289 C 462.20278 162.87539 462.58811 162.22734 463.47266 162.27344 z M 476.16016 163.16602 C 476.2952 163.15796 476.43619 163.1673 476.58594 163.20117 C 477.06794 164.34517 475.10672 164.51817 474.38672 164.95117 L 473.94531 164.61914 C 474.60156 164.20002 475.21488 163.22243 476.16016 163.16602 z M 467.22656 164.40234 L 466.46875 164.85938 L 466.83203 164.43555 L 467.22656 164.40234 z M 479.7168 164.69141 C 480.04784 164.70465 480.3687 164.7432 480.67383 164.81445 C 474.52446 166.53428 468.93617 170.57711 462.58398 169.95312 C 465.97998 168.06512 469.3428 166.22069 473.2168 165.05469 L 472.49609 165.94336 C 474.54359 165.76486 477.39951 164.59868 479.7168 164.69141 z M 465.33008 165.37305 L 464.59766 165.80664 L 463.41211 165.91016 L 465.33008 165.37305 z M 481.12305 165.57031 L 477.71289 167.03906 L 480.74219 165.60352 L 481.12305 165.57031 z M 462.3125 166.83594 L 460.87305 168.51172 L 460.44531 168.15234 L 458.9375 168.68164 C 458.9035 168.28664 461.1415 167.31894 462.3125 166.83594 z M 481.94336 170.23633 C 484.27336 174.37233 487.09009 179.26589 488.24609 183.83789 L 487.43164 183.16211 L 486.8125 185.19922 C 481.2405 184.89122 478.36853 179.2233 473.51953 177.6543 L 473.48633 177.27148 L 470.06055 174.42383 L 481.94336 170.23633 z M 427.70312 177.2168 C 428.50836 177.24796 429.32687 177.37314 430.11719 177.53711 L 422.44727 179.78125 C 423.51039 177.94875 425.14327 177.30335 426.9043 177.21875 C 427.16845 177.20606 427.43471 177.20641 427.70312 177.2168 z M 422.51562 177.77344 C 422.32691 178.0573 422.13421 178.40898 421.91797 178.63672 L 423.08789 178.5332 C 422.37889 178.9752 422.37736 178.97602 421.56836 178.66602 L 422.51562 177.77344 z M 430.97266 178.22461 L 436.18945 179.375 C 427.36945 182.102 418.82153 188.37572 409.14453 190.01172 C 415.10853 186.31972 419.13631 187.15597 424.32031 183.16797 C 424.62831 182.33997 423.39369 182.03931 423.42969 182.44531 C 419.88669 182.34531 418.31497 186.84131 415.04297 185.57031 L 405.89453 189.0918 C 406.01253 189.0938 406.14864 189.03155 406.26562 189.06055 C 406.22863 189.11455 406.2285 189.11439 406.1875 189.15039 C 406.4955 189.18039 406.78573 189.01523 407.05273 188.99023 C 406.73773 189.43423 406.30341 189.46916 405.56641 189.53516 C 405.87741 189.50716 405.9485 189.46739 406.1875 189.15039 C 406.0855 189.13739 405.99881 189.19075 405.88281 189.09375 L 405.88086 189.09375 C 404.71912 189.14103 403.22547 190.41763 402.76172 189.36719 C 412.29972 185.81119 421.56866 183.41061 430.97266 178.22461 z M 438.63281 180.32031 C 430.73081 184.54631 423.06406 186.81127 415.41406 189.82227 C 423.03006 186.42727 430.97081 182.58731 438.63281 180.32031 z M 415.80664 180.75977 L 415.83984 181.1543 L 414.66406 181.25781 L 414.63086 180.86328 L 415.80664 180.75977 z M 418.5918 180.91406 L 416.28125 181.89453 L 417.42383 181.01562 L 418.5918 180.91406 z M 419.02734 181.6543 L 419.0625 182.03125 L 416.00977 183.0957 L 419.02734 181.6543 z M 409.31836 182.88477 L 409.76953 183.64062 C 409.35353 183.26862 408.21836 183.77677 409.31836 182.88477 z M 397.57812 184.29883 C 395.00813 186.09183 392.81048 188.65328 388.89648 188.61328 L 392.64062 186.72461 C 392.60462 186.30261 392.25905 186.33123 391.87305 186.36523 C 393.80405 186.19723 395.27414 184.49983 397.57812 184.29883 z M 405.60938 185.97656 L 404.89648 186.80664 L 404.50781 186.49219 L 405.25781 186.00781 L 405.60938 185.97656 z M 401.36133 186.76758 C 399.57133 188.86758 394.52166 189.67833 391.84766 190.73633 C 395.31566 189.61033 397.82033 187.07758 401.36133 186.76758 z M 388.83008 187.86328 L 387.72852 189.09766 L 387.31836 188.75195 L 388.42383 187.90039 L 388.83008 187.86328 z M 399.77539 191.19141 C 392.69739 195.78641 383.78228 197.74017 376.23828 201.95117 L 376.23828 201.95312 C 374.24028 201.32012 372.44436 203.85223 370.19336 204.49023 C 370.15636 199.74023 378.15142 200.97816 381.85742 198.28516 C 387.51742 195.44316 393.62139 192.93941 399.77539 191.19141 z M 408.90234 191.60156 L 409.31641 191.98047 L 407.74023 192.11719 L 408.90234 191.60156 z M 402.6582 192.5625 C 401.9782 193.7925 398.74469 197.6195 396.55469 195.0625 C 397.98169 193.3185 400.8982 195.0675 402.6582 192.5625 z M 416.04297 192.5625 L 390.68359 204.64844 C 398.56459 199.99844 407.28697 195.6865 416.04297 192.5625 z M 374.58398 196.18945 L 373.51758 197.84375 L 372.69531 197.5332 L 374.58398 196.18945 z M 392.71484 196.79688 C 392.8738 196.79695 393.03042 196.83405 393.18555 196.91992 C 392.79955 196.95292 392.83203 197.32422 392.83203 197.32422 C 393.63303 198.06722 395.58966 197.51437 396.72266 196.98438 L 393.00781 199.32031 L 392.08398 197.82227 L 389.41406 199.2207 C 389.72006 198.0287 389.72014 198.02767 389.24414 197.26367 C 390.40439 198.5543 391.60216 196.79632 392.71484 196.79688 z M 363.63086 197.14648 L 364.83008 197.42773 C 364.48808 197.86773 362.15786 198.45748 363.63086 197.14648 z M 371.19336 198.04883 L 370.50195 199.27734 L 370.11719 199.3125 L 371.19336 198.04883 z M 369.37891 199.71875 C 369.53925 199.71214 369.67762 199.72844 369.78125 199.77344 C 370.25725 200.89544 366.62864 200.04992 367.14062 201.16992 C 366.05651 200.93017 368.2565 199.76499 369.37891 199.71875 z M 383.22852 200.5332 L 377.56055 203.02344 L 382.85742 200.56641 L 383.22852 200.5332 z M 365.90039 200.89648 L 366.00195 202.04297 C 367.96095 201.87097 368.88119 203.36775 371.11719 201.59375 C 370.53019 204.01975 367.75159 203.88231 366.30859 205.57031 L 367.92188 205.81641 C 365.27688 206.87141 362.64183 208.65189 359.54883 209.33789 C 360.82783 206.05089 363.94483 205.39053 366.17383 204.01953 C 366.13783 203.60753 365.76195 203.64278 365.37695 203.67578 L 366.07031 202.8418 C 364.99831 203.7078 362.60141 203.53884 361.94141 205.21484 L 361.93945 205.21484 C 361.93772 205.21508 360.86717 205.36371 359.57422 205.56055 C 358.08522 206.43055 356.66363 207.97566 355.01562 207.34766 C 353.11211 208.01749 354.76819 206.96694 357.24414 206.12305 C 356.43282 206.24992 355.64271 206.36461 354.94727 206.56445 C 354.92927 206.37145 356.72719 206.02314 358.49219 205.74414 C 358.92783 205.61853 359.36586 205.52417 359.81836 205.44531 C 359.77534 205.46039 359.73554 205.48433 359.69531 205.49414 C 359.79931 205.45614 359.90809 205.44739 359.99609 205.40039 C 359.94029 205.41606 359.87749 205.42247 359.82422 205.44336 C 359.96669 205.36365 360.10832 205.28423 360.25977 205.23242 C 360.68977 205.01542 361.12986 204.78573 361.50586 204.42773 L 357.19336 204.80664 C 359.42136 203.42464 364.10739 202.61648 365.90039 200.89648 z M 360.25977 205.23242 C 360.16377 205.27942 360.08909 205.36439 359.99609 205.40039 C 360.66609 205.28639 361.32245 205.19584 361.93945 205.21484 C 361.34945 204.97984 360.79077 205.04042 360.25977 205.23242 z M 358.49219 205.74414 C 358.0658 205.86197 357.63267 205.98827 357.24609 206.12305 A 13.877 13.877 0 0 0 359.38477 205.59375 C 359.09577 205.64275 358.80019 205.68414 358.49219 205.74414 z M 373.72852 204.53516 L 371.42578 205.12305 L 372.14844 204.67383 L 373.72852 204.53516 z M 388.78711 205.56836 C 387.63461 206.9445 384.95163 208.20572 383.16211 209.13086 C 385.14434 207.80154 386.42852 205.46007 388.78711 205.56836 z M 337.89062 233.76367 C 341.02326 234.0094 342.9107 238.01172 345.10352 238.19922 C 344.79152 238.98722 346.02016 239.67581 346.91016 240.38281 L 347.1582 239.2168 C 360.8082 250.2438 373.47764 264.93884 387.51562 271.96484 L 387.61523 273.11328 C 389.95223 272.90928 389.87289 276.47639 393.33789 275.40039 C 392.38889 278.22039 396.66856 277.45934 398.35156 278.90234 C 349.16856 275.67734 296.20647 274.01612 244.48047 286.45312 C 241.51447 288.68313 237.10016 288.27214 233.66016 289.36914 L 211.05078 296.875 L 210.60547 296.13086 C 239.32047 281.75986 269.18822 267.3425 298.32422 253.3125 L 297.47656 252.63672 L 300.64258 252.35938 C 312.67758 246.17638 324.71605 239.17658 337.24805 233.76758 C 337.46842 233.74833 337.68179 233.74729 337.89062 233.76367 z M 254.30859 244.45898 C 254.3975 244.46617 254.49353 244.48702 254.59766 244.52539 L 254.59766 244.52734 C 254.66566 245.30434 253.52711 245.80741 253.03711 245.06641 C 253.40548 245.03316 253.68622 244.40869 254.30859 244.45898 z M 660.7207 341.19727 C 668.48136 340.99022 674.3157 344.53117 675.0957 353.45898 C 675.8567 362.15998 671.18588 367.36619 661.17188 368.24219 C 652.14188 369.03119 646.18486 365.25159 645.38086 356.05859 C 644.59086 347.02859 649.94858 342.09406 659.14258 341.28906 C 659.67614 341.24244 660.20333 341.21107 660.7207 341.19727 z M 950.28711 347.25 L 953.16016 380.08398 L 911.29688 383.74609 L 912.24414 394.58203 L 950.82422 391.20508 L 953.68359 423.87695 L 915.10156 427.25195 L 916.07812 438.41602 L 959.25586 434.63867 L 963.77148 467.33008 L 879.54883 474.69727 L 869.02148 354.35938 L 950.28711 347.25 z M 847.03906 356.28125 L 857.56836 476.61914 L 821.28711 479.79492 L 796.62305 436.13086 C 794.27905 432.03386 791.79203 426.29489 790.33203 420.96289 L 788.36328 421.13672 C 789.12128 426.03272 789.98177 432.07878 790.38477 436.67578 L 794.36328 482.15039 L 758.90039 485.25391 L 748.37305 364.91406 L 788.5957 361.39453 L 808.36523 396.39062 C 810.66523 399.99462 812.97436 405.58297 814.81836 411.54297 L 816.78906 411.36914 C 815.85106 406.32314 815.03547 400.7707 814.60547 395.8457 L 811.41406 359.39844 L 847.03906 356.28125 z M 727.54102 366.73828 L 734.00586 440.61523 C 737.03686 475.25523 722.61777 490.08169 688.63477 493.05469 C 661.38077 495.43869 638.49175 490.98906 634.84375 449.28906 L 628.38086 375.41211 L 667.94727 371.95117 L 674.58203 447.79883 C 675.41503 457.32083 676.43713 459.54787 686.45312 458.67188 C 696.13912 457.82488 697.08791 455.42334 696.25391 445.90234 L 689.61719 370.05469 L 727.54102 366.73828 z M 321.67969 379.26367 C 322.46656 379.29992 323.36659 379.52327 323.99609 380.07227 C 322.56309 381.37427 321.22188 379.89012 320.04688 379.57812 C 320.21988 379.37813 320.89281 379.22742 321.67969 379.26367 z M 575.80273 380.28125 C 597.20772 380.1513 612.40581 389.26438 614.52734 413.51562 C 615.86234 428.78363 610.73661 440.14919 601.47461 447.74219 L 610.60547 461.33594 C 612.13347 463.68394 612.84773 464.28239 615.80273 464.02539 C 617.11573 463.90939 618.57984 463.61556 619.71484 463.35156 L 622.67383 497.16992 C 618.77683 498.00792 613.07302 499.00306 609.79102 499.28906 C 593.53702 500.71306 586.33172 495.88462 578.88672 482.64062 L 566.74023 461.03906 L 562.47266 461.41211 L 566.0332 502.12695 L 527.78125 505.47461 L 517.25391 385.13477 L 568.96875 380.61133 C 571.30828 380.40658 573.58843 380.29469 575.80273 380.28125 z M 372.70703 388.01953 L 381.10547 484.00977 C 376.56768 484.97456 372.0656 485.86093 367.625 486.64453 C 357.888 487.49653 347.21959 491.97986 338.80859 490.75586 L 338.54297 491.94336 C 334.10897 491.16736 329.94234 492.69684 325.65234 493.46484 C 321.59234 491.84884 316.25263 494.2863 312.64062 493.4043 C 309.01862 497.2833 305.40009 491.69711 301.74609 495.16211 L 269.41211 495.23828 C 267.42811 495.01828 265.71641 497.90259 264.31641 495.68359 C 226.26941 493.13159 185.04259 495.51805 150.30859 476.87305 L 151.01953 476.02734 L 151.45508 476.38086 L 151.35156 475.20312 C 155.58156 474.07112 160.53041 472.0465 164.19141 468.9375 C 177.00341 461.9375 191.42109 455.5465 204.49609 447.3125 C 248.05109 430.8565 290.1677 407.83952 336.5957 397.85352 L 335.74414 397.1543 L 339.93555 396.13867 C 339.24355 396.14367 338.54367 395.89098 338.76367 395.33398 L 368.91602 388.35156 L 372.52539 389.21094 L 372.42578 388.04492 L 372.70703 388.01953 z M 461.92969 388.58984 C 470.05373 388.46844 480.69805 389.24248 495.7168 392.14648 L 491.48047 426.92773 C 475.90247 422.83173 464.93872 422.30289 457.38672 422.96289 C 445.23672 424.02489 442.5917 425.91055 444.8457 451.68555 C 447.1307 477.78955 449.79378 479.87113 460.30078 478.95312 C 462.10578 478.79412 465.53953 478.32945 467.64453 477.81445 L 466.74023 467.4707 L 457.54688 468.27539 L 454.91797 438.23242 L 500.55664 434.23828 L 506.30273 499.9082 C 491.03073 506.8682 475.40705 511.70898 461.12305 512.95898 C 424.02005 516.20598 407.34497 497.64914 403.66797 455.61914 C 399.78997 411.29214 415.83117 392.35484 454.57617 388.96484 C 456.79267 388.77084 459.22167 388.63031 461.92969 388.58984 z M 569 410.74414 C 568.72124 410.74956 568.43227 410.76502 568.13477 410.79102 L 558.11914 411.66797 L 560.01758 433.33984 L 569.53711 432.50586 C 574.79111 432.04586 576.69655 429.23225 575.93555 420.53125 C 575.27555 412.99 573.18134 410.66286 569 410.74414 z M 1442.6523 471.0332 L 388.04297 563.30078 L 403.85547 744.02734 L 1458.4668 651.75977 L 1442.6523 471.0332 z M 382.88281 504.33398 L 382.96094 505.22656 C 378.69343 506.39549 374.39519 507.58676 370.01172 508.91406 L 369.13672 508.21875 C 363.06872 511.08875 354.89536 512.23016 347.56836 514.03516 L 346.69922 513.36328 C 355.58322 510.96228 365.15356 507.77213 374.10156 506.20312 C 376.99319 505.65193 379.92789 505.02682 382.88281 504.33398 z M 1384.9766 505.10938 C 1392.4577 505.01323 1402.1991 505.74187 1418.0391 508.07812 L 1412.7324 541.96094 C 1390.2524 538.46794 1384.1194 538.34294 1377.0664 538.96094 C 1373.4524 539.27694 1372.2008 540.0462 1372.5078 543.6582 C 1372.7338 546.1212 1373.4522 546.88545 1377.4922 547.68945 L 1398.2129 551.83398 C 1414.1999 555.06598 1426.0675 563.95355 1427.8535 584.31055 C 1430.1875 611.07055 1409.7728 627.24947 1382.8398 629.60547 C 1371.3468 630.61047 1362.9072 630.5233 1339.2402 624.6543 L 1345.5469 590.84961 C 1374.2269 597.27361 1377.3734 597.33023 1384.1074 596.74023 C 1388.3734 596.36723 1389.9603 595.56695 1389.6133 591.62695 C 1389.3203 588.34295 1388.4539 587.75797 1383.8809 586.66797 L 1364.1191 581.94531 C 1348.2391 578.20631 1336.2671 569.99063 1334.4531 549.14062 C 1332.2001 523.53062 1350.8534 507.83517 1378.1074 505.45117 C 1380.2407 505.26467 1382.4829 505.14142 1384.9766 505.10938 z M 1280.7871 515.62109 L 1283.6523 548.45508 L 1241.7871 552.11914 L 1242.7324 562.95312 L 1281.3203 559.57812 L 1284.1738 592.24805 L 1245.5996 595.62305 L 1246.5723 606.78711 L 1289.7461 603.01172 L 1294.2676 635.70117 L 1210.043 643.07031 L 1199.5156 522.73047 L 1280.7871 515.62109 z M 1149.3281 527.12109 L 1152.2012 559.95508 L 1127.5762 562.11133 L 1135.2324 649.61523 L 1095.6641 653.07617 L 1088.0117 565.57227 L 1063.7129 567.69727 L 1060.8398 534.86133 L 1149.3281 527.12109 z M 240.2832 527.34375 L 261.59375 527.48242 C 254.95375 528.06342 246.61842 527.20227 239.98242 528.19727 L 240.2832 527.34375 z M 1014.1562 539.21484 C 1035.5614 539.08549 1050.7602 548.19902 1052.8809 572.45117 C 1054.2169 587.71817 1049.0901 599.08573 1039.8281 606.67773 L 1048.957 620.27148 C 1050.487 622.61848 1051.2012 623.21994 1054.1582 622.96094 C 1055.4712 622.84694 1056.9334 622.55211 1058.0684 622.28711 L 1061.0273 656.10742 C 1057.1313 656.94442 1051.4275 657.93856 1048.1445 658.22656 C 1031.8905 659.64756 1024.6852 654.82022 1017.2402 641.57422 L 1005.0957 619.97461 L 1000.8242 620.34766 L 1004.3887 661.0625 L 966.13477 664.4082 L 955.60742 544.07031 L 1007.3203 539.54688 C 1009.6598 539.34222 1011.9419 539.22822 1014.1562 539.21484 z M 935.25195 545.85156 L 938.12305 578.68555 L 896.25977 582.34766 L 897.20898 593.18359 L 935.78906 589.80859 L 938.64648 622.47852 L 900.06641 625.85352 L 901.04297 637.01758 L 944.2207 633.24023 L 948.73438 665.93164 L 864.51562 673.29883 L 853.98438 552.96094 L 935.25195 545.85156 z M 841.67578 554.03711 L 821.33984 677.07617 L 773.07227 681.29883 L 731.67969 563.66211 L 772.22852 560.11328 L 789.96484 622.91406 C 791.88284 629.69406 793.14266 636.53259 793.47266 640.30859 L 795.44336 640.13672 C 795.11336 636.36172 795.00089 629.42016 795.71289 622.41016 L 802.27344 557.48633 L 841.67578 554.03711 z M 1312.8223 562.06836 C 1315.4474 562.07883 1317.7899 562.94981 1319.8672 564.67969 C 1322.2402 566.65869 1323.5592 569.18744 1323.8262 572.27344 C 1324.1062 575.35744 1323.2409 578.07945 1321.2539 580.43945 C 1319.2539 582.79945 1316.734 584.11581 1313.668 584.38281 C 1310.588 584.65281 1307.8678 583.79836 1305.5078 581.81836 C 1303.1478 579.83936 1301.8275 577.30666 1301.5605 574.22266 C 1301.2935 571.16366 1302.1468 568.44622 1304.1328 566.07422 C 1306.1068 563.70322 1308.6267 562.38323 1311.6797 562.11523 C 1312.0663 562.08161 1312.4472 562.06686 1312.8223 562.06836 z M 661.3418 568.41992 C 668.82417 568.32364 678.56655 569.05242 694.4043 571.38867 L 689.0957 605.26953 C 666.6237 601.77853 660.49164 601.65253 653.43164 602.26953 C 649.81964 602.58653 648.56486 603.35775 648.88086 606.96875 C 649.09686 609.43075 649.82323 610.19405 653.86523 610.99805 L 674.57617 615.14258 C 690.57317 618.37458 702.4358 627.26214 704.2168 647.61914 C 706.5578 674.37914 686.13689 690.55906 659.21289 692.91406 C 647.72189 693.91906 639.27556 693.83289 615.60156 687.96289 L 621.9082 654.16016 C 650.5932 660.58316 653.74266 660.63978 660.47266 660.05078 C 664.74166 659.67678 666.32547 658.87555 665.98047 654.93555 C 665.69347 651.65155 664.81591 651.06852 660.25391 649.97852 L 640.48438 645.25586 C 624.60638 641.51586 612.63845 633.29822 610.81445 612.44922 C 608.57445 586.83822 627.2187 571.14572 654.4707 568.76172 C 656.60495 568.57497 658.84767 568.45202 661.3418 568.41992 z M 1007.3516 569.67969 C 1007.0728 569.68516 1006.7858 569.7005 1006.4883 569.72656 L 996.47266 570.60352 L 998.36914 592.27344 L 1007.8926 591.43945 C 1013.1456 590.97945 1015.0481 588.1668 1014.2871 579.4668 C 1013.6271 571.92555 1011.5336 569.59758 1007.3516 569.67969 z M 1175.957 574.04297 C 1178.579 574.05195 1180.9282 574.9218 1183.002 576.6543 C 1185.375 578.6323 1186.6948 581.16305 1186.9648 584.24805 C 1187.2338 587.33205 1186.3729 590.05406 1184.3809 592.41406 C 1182.3889 594.77406 1179.8637 596.08747 1176.8047 596.35547 C 1173.7197 596.62647 1170.9967 595.77297 1168.6387 593.79297 C 1166.2787 591.81497 1164.9653 589.27931 1164.6953 586.19531 C 1164.4273 583.13531 1165.2837 580.42278 1167.2617 578.05078 C 1169.2397 575.67878 1171.7564 574.3598 1174.8164 574.0918 C 1175.2022 574.05792 1175.5825 574.04169 1175.957 574.04297 z M 592.39453 575.84766 L 595.26758 608.68164 L 553.4043 612.34375 L 554.35156 623.17969 L 592.93164 619.80469 L 595.79102 652.47461 L 557.20898 655.84961 L 558.1875 667.01367 L 601.36328 663.23633 L 605.87891 695.92773 L 521.65625 703.29492 L 511.12891 582.95703 L 592.39453 575.84766 z M 460.23828 587.41016 L 467.87891 674.75 L 501.69727 671.79102 L 507.04883 704.57227 L 431.36328 711.19531 L 420.83594 590.85547 L 460.23828 587.41016 z M 1159.1328 693.01172 L 405.16211 758.97461 L 411.75195 834.2793 L 1165.7207 768.31445 L 1159.1328 693.01172 z M 1146.5176 706.54688 L 1150.9473 757.17578 L 1150.9453 757.17578 L 1139.0664 758.21484 L 1137.2363 737.28711 L 1122.248 738.59766 L 1124.0781 759.52539 L 1112.1992 760.56445 L 1107.7695 709.9375 L 1119.6484 708.89648 L 1121.3711 728.58203 L 1136.3594 727.27148 L 1134.6367 707.58789 L 1146.5176 706.54688 z M 1088.6133 711.02734 C 1091.5098 711.01609 1094.834 711.41658 1100.2617 712.61133 L 1098.6816 723.19141 C 1092.6876 721.48841 1090.0013 721.02795 1087.4453 721.25195 C 1081.2993 721.78895 1078.4298 723.98842 1079.6328 737.73242 C 1080.8958 752.16842 1084.1414 753.48441 1090.3574 752.94141 C 1092.9824 752.71041 1095.9421 751.54787 1101.9121 748.17188 L 1105.168 758.32617 C 1098.445 761.83717 1094.5617 762.80472 1090.7637 763.13672 C 1075.2917 764.48972 1068.6516 756.23284 1067.1406 738.96484 C 1065.4676 719.83284 1072.8129 712.29911 1085.7969 711.16211 C 1086.7296 711.08086 1087.6478 711.03109 1088.6133 711.02734 z M 1028.8223 716.24219 C 1031.7412 716.19241 1035.1978 716.47713 1040.8633 717.39062 L 1039.2461 727.55469 C 1031.2081 726.37769 1028.3404 726.21127 1025.6484 726.44727 C 1022.4004 726.73227 1020.3815 728.29927 1020.6895 731.82227 C 1020.8955 734.17127 1022.4364 735.08014 1025.3594 735.86914 L 1033.6934 738.0625 C 1040.1034 739.7285 1044.8728 743.34798 1045.5508 751.08398 C 1046.4748 761.65198 1038.9284 767.67017 1028.5684 768.57617 C 1024.1484 768.96317 1020.4627 769.00772 1011.7637 766.63672 L 1013.6621 756.51953 C 1024.1621 758.80153 1025.9008 758.78958 1029.0098 758.51758 C 1032.4638 758.21558 1034.2392 756.24955 1033.9492 752.93555 C 1033.7192 750.30955 1032.2366 749.25625 1029.3906 748.53125 L 1021.0605 746.40625 C 1014.7255 744.80225 1009.7362 741.06516 1009.0762 733.53516 C 1008.2182 723.72716 1015.5225 717.31258 1026.0195 716.39258 C 1026.9348 716.31258 1027.8493 716.25878 1028.8223 716.24219 z M 1003.6172 719.04883 L 1004.4805 728.92773 L 993.01562 729.92969 L 996.58203 770.67969 L 984.63281 771.72461 L 981.06641 730.97461 L 969.60156 731.97656 L 968.73633 722.10156 L 1003.6172 719.04883 z M 950.80859 723.87109 C 958.94265 724.10769 964.50752 728.01345 965.33789 737.50195 C 965.93489 744.33995 963.36484 749.15748 958.46484 752.02148 L 964.57617 761.43945 C 965.46317 762.82345 965.83352 763.0695 967.35352 762.9375 C 967.97552 762.8835 968.31438 762.78206 968.85938 762.66406 L 969.76758 773.02734 A 33.477 33.477 0 0 1 965.44531 773.75195 C 960.40431 774.19295 957.98456 772.80461 954.97656 767.84961 L 947.88672 756.00977 L 942.77539 756.45703 L 944.41992 775.24414 L 932.88477 776.25391 L 928.45508 725.625 L 947.17188 723.98828 C 948.4325 723.87791 949.64659 723.83729 950.80859 723.87109 z M 919.11523 726.44336 L 919.97852 736.31836 L 900.63867 738.01172 L 901.53906 748.30273 L 919.63672 746.71875 L 920.49219 756.52734 L 902.39648 758.11133 L 903.34766 768.95508 L 922.96094 767.23828 L 924.51172 776.98438 L 892.32422 779.80078 L 887.89453 729.17383 L 919.11523 726.44336 z M 881.80273 729.70703 L 871.86523 781.5918 L 857.77539 782.82422 L 838.97852 733.45312 L 851.13477 732.38867 L 862.28125 764.33594 C 862.84725 766.02594 863.54416 769.23487 863.66016 770.54688 L 864.28125 770.49219 C 864.16725 769.17919 864.29655 765.89677 864.56055 764.13477 L 869.99023 730.74023 L 881.80273 729.70703 z M 828.23242 729.70898 L 811.8125 791.83594 L 802.83594 792.61914 L 819.25391 730.49414 L 828.23242 729.70898 z M 947.96094 733.13281 C 947.71961 733.1361 947.46994 733.14919 947.21094 733.17188 L 940.78516 733.73242 L 941.99609 747.54688 L 947.93555 747.02734 C 952.07955 746.66434 954.01422 744.12989 953.57422 739.08789 C 953.23391 735.20289 951.58083 733.08344 947.96094 733.13281 z M 787.99414 737.91211 L 792.42383 788.54102 L 780.54492 789.58008 L 778.71289 768.6543 L 763.72461 769.96484 L 765.55664 790.89258 L 753.67773 791.93164 L 749.24609 741.30469 L 761.12695 740.26367 L 762.84766 759.94922 L 777.83594 758.63672 L 776.11328 738.95312 L 787.99414 737.91211 z M 730.08984 742.39453 C 732.98559 742.38305 736.30903 742.78302 741.73828 743.97852 L 740.1582 754.55664 C 734.1622 752.85464 731.47983 752.39319 728.92383 752.61719 C 722.77683 753.15519 719.90442 755.35561 721.10742 769.09961 C 722.37042 783.53561 725.61994 784.85159 731.83594 784.30859 C 734.45894 784.07659 737.42067 782.91506 743.38867 779.53906 L 746.64258 789.69336 C 739.92058 793.20436 736.03828 794.17191 732.23828 794.50391 C 716.76828 795.85691 710.12914 787.59808 708.61914 770.33008 C 706.94514 751.19808 714.28939 743.6673 727.27539 742.5293 C 728.20764 742.44805 729.12459 742.39836 730.08984 742.39453 z M 680.95703 747.2793 L 681.82031 757.1543 L 662.48242 758.84766 L 663.38281 769.13867 L 681.47852 767.55469 L 682.33789 777.36328 L 664.24023 778.94727 L 665.18945 789.79102 L 684.80469 788.07422 L 686.35547 797.82031 L 654.16992 800.63672 L 649.73828 750.00977 L 680.95703 747.2793 z M 638.88086 750.96094 L 643.30859 801.58789 L 632.05078 802.57227 L 615.51562 776.66797 A 24.137 24.137 0 0 1 612.84961 770.8457 L 612.1582 770.9043 C 612.4662 772.8273 612.79194 774.95563 612.96094 776.89062 L 615.33594 804.03516 L 604.5625 804.97656 L 600.13281 754.34961 L 612.56445 753.26172 L 627.72461 776.99023 C 628.69261 778.50623 629.77758 780.56811 630.51758 782.66211 L 631.20898 782.60156 C 630.83698 780.75556 630.50761 778.55772 630.34961 776.76172 L 628.17383 751.89648 L 638.88086 750.96094 z M 1057.5371 753.81641 C 1060.602 753.97758 1062.8858 755.71758 1063.1973 759.2832 L 1063.1973 759.28516 C 1063.5293 763.08316 1061.3878 765.63786 1057.1738 766.00586 C 1053.3058 766.34586 1050.6253 764.35006 1050.2812 760.41406 C 1049.9432 756.54606 1052.3127 754.18175 1056.1797 753.84375 C 1056.6459 753.803 1057.0993 753.79338 1057.5371 753.81641 z M 590.85938 755.16016 L 591.72461 765.03711 L 572.38477 766.72852 L 573.28516 777.02148 L 591.38086 775.4375 L 592.24023 785.24414 L 574.14453 786.82812 L 575.0918 797.67383 L 594.70703 795.95508 L 596.25586 805.70312 L 564.07031 808.51953 L 559.64062 757.89258 L 590.85938 755.16016 z M 549.19531 758.80469 L 551.97656 790.57617 L 551.97656 790.57812 C 553.17956 804.32312 547.12398 810.69813 534.20898 811.82812 C 522.88098 812.82013 514.5232 809.58366 513.1582 793.97266 L 510.37891 762.20117 L 522.18945 761.16797 L 524.96875 792.93945 C 525.59675 800.12345 527.51898 802.18211 533.45898 801.66211 C 539.32898 801.14811 541.21912 798.89522 540.57812 791.57422 L 537.80078 759.80273 L 549.19531 758.80469 z M 488.78906 764.29102 C 496.92262 764.52828 502.48691 768.43533 503.31641 777.92383 C 503.91541 784.76083 501.34531 789.57836 496.44531 792.44336 L 502.55859 801.86133 C 503.44459 803.24533 503.81594 803.49137 505.33594 803.35938 C 505.95694 803.30437 506.2958 803.20489 506.8418 803.08789 L 507.74805 813.44727 A 33.563 33.563 0 0 1 503.42773 814.17383 C 498.38473 814.61583 495.96703 813.22653 492.95703 808.26953 L 485.86523 796.43164 L 480.75586 796.87891 L 482.40039 815.66406 L 470.86523 816.67578 L 466.43555 766.04688 L 485.15234 764.4082 C 486.41284 764.29795 487.62712 764.25712 488.78906 764.29102 z M 444.67578 767.49023 C 447.53947 767.54923 450.84852 767.95023 455.68164 769.00586 L 454.10742 779.65234 C 447.11642 777.68934 444.45566 777.50339 441.34766 777.77539 C 433.47266 778.46439 430.89608 780.84777 432.08008 794.38477 C 433.25908 807.85477 436.1145 810.24911 442.8125 809.66211 C 444.5395 809.51111 446.2485 809.15477 448.6875 808.38477 L 447.81055 798.36719 L 441.24805 798.94336 L 440.39648 789.20312 L 458.07812 787.65625 L 460.46094 814.87109 C 454.50094 817.55009 448.25589 819.34706 443.21289 819.78906 C 427.87989 821.13006 421.1088 812.95519 419.5918 795.61719 C 417.9978 777.38319 424.22658 769.04355 439.76758 767.68555 C 441.3992 767.5423 442.95757 767.45484 444.67578 767.49023 z M 485.94141 773.55273 C 485.70008 773.55603 485.45041 773.56911 485.19141 773.5918 L 478.76758 774.1543 L 479.97656 787.96875 L 485.91602 787.44727 C 490.06002 787.08627 491.99569 784.55081 491.55469 779.50781 C 491.21437 775.62281 489.5613 773.50337 485.94141 773.55273 z M 699.01367 785.18164 C 702.07791 785.34349 704.36253 787.08477 704.67578 790.65039 C 705.00778 794.44839 702.86339 797.00309 698.65039 797.37109 C 694.78239 797.71009 692.10377 795.71725 691.75977 791.78125 C 691.42077 787.91325 693.78825 785.54898 697.65625 785.20898 C 698.12237 785.16836 698.57592 785.15852 699.01367 785.18164 z "
     style="fill:#ffffff;fill-opacity:1;fill-rule:nonzero;stroke:none" />
</svg>
